<?xml version="1.0" encoding="utf-8"?>
<!-- Generator: Adobe Illustrator 24.1.0, SVG Export Plug-In . SVG Version: 6.00 Build 0)  -->
<svg version="1.1" id="Layer_1" xmlns="http://www.w3.org/2000/svg" xmlns:xlink="http://www.w3.org/1999/xlink" x="0px" y="0px"
	 viewBox="0 0 219.1 219.3" style="enable-background:new 0 0 219.1 219.3;" xml:space="preserve">
<style type="text/css">
	.st0{fill:#FFFFFF;stroke:#000000;stroke-width:8;stroke-miterlimit:10;}
	.st1{stroke:#000000;stroke-miterlimit:10;}
	.st2{fill:none;stroke:#000000;stroke-width:8;stroke-miterlimit:10;}
	.st3{fill:none;stroke:#000000;stroke-width:4;stroke-miterlimit:10;}
	.st4{fill:none;}
	.st5{font-family:'Avenir-Black';}
	.st6{font-size:10px;}
</style>
<circle class="st0" cx="109.4" cy="109.7" r="105.6"/>
<g>
	<path d="M74.7,108.2c2.1,1.1,2.7,3,2,6.2h-3.9C72.1,111.7,72.7,109.6,74.7,108.2z"/>
	<path d="M73.9,117.3h2.7c0.2,0,0.5,0.3,0.5,0.8v8.8c0,0.4-0.2,0.8-0.5,0.8h-3.6c-0.2,0-0.5-0.3-0.5-0.8v-8.8c0-0.4,0.2-0.8,0.5-0.8
		H73.9"/>
	<path d="M82.8,141.3c0-0.6-0.4-1.2-1-1.6c-1.1-0.7-1.6-2.5-1.9-3.3c-0.1-0.2-0.1-0.5-0.1-0.7v-6.2c0-1.1-0.6-2-1.5-2h-3.5v-0.1
		h-3.5c-0.9,0-1.5,1-1.5,2v6.2c0,0.2-0.1,0.5-0.1,0.7c-0.1,0.8-0.7,2.6-1.9,3.3c-0.6,0.4-1,1-1,1.6c-0.5,3.6-1.5,13.6,0.1,21.1
		c0,0.1,0,0.1,0,0.2c0.2,0.9,2.5,8.6,2.9,12.3c0.1,1,0.7,1.7,1.5,1.7h3.5v0.1h3.5c0.7,0,1.4-0.8,1.5-1.7c0.4-3.6,2.6-11.5,2.9-12.3
		c0-0.1,0-0.1,0-0.2C84.3,154.9,83.3,145,82.8,141.3z"/>
	<path class="st1" d="M130,31c0-0.1,0-0.1,0-0.1c0-0.1,0-0.1,0-0.1l0,0c0-0.1-0.1-0.1-0.1-0.1l-0.1-0.1l0,0c-0.1,0-0.1,0-0.1,0h-0.1
		l-25.9,9.6c-0.1,0.1-0.2,0.1-0.2,0.2l0.3,16c0,0.1,0.1,0.1,0.1,0.2c0.1,0.1,0.1,0.1,0.2,0.1l16,0.3c0.1,0,0.2-0.1,0.2-0.2L130,31z
		 M104.4,56.2l-0.3-15.5l25.2-9.4l-9.4,25.2L104.4,56.2z"/>
	<path class="st2" d="M125,193.5H92.8c-10.5,0-17.9-6-17.9-16.5v-39"/>
	<path class="st2" d="M153,151.2c0-6-0.2-12-0.2-17.9c0-9.5,0-18.9,0.1-28.3c0.1-5.5-1.2-11.5-4.1-16.5c-4.2-7.5-8.5-12.7-15.5-17.7
		"/>
	<path class="st2" d="M152.8,135.3v39.3c0,26.4-44.1,26.3-44.2-1.7c0-12.6,10.7-22.1,22.2-22.2c9.6-0.1,18.6,6.1,22.1,15.8"/>
	<circle class="st3" cx="110.1" cy="50.6" r="33"/>
	<circle class="st1" cx="110.1" cy="50.6" r="2.6"/>
</g>
<rect x="108.4" y="21.7" class="st4" width="9.9" height="8.4"/>
<text transform="matrix(1 0 0 1 109.3042 29.2634)" class="st5 st6">N</text>
</svg>
