<?xml version="1.0" encoding="utf-8"?>
<!-- Generator: Adobe Illustrator 24.1.0, SVG Export Plug-In . SVG Version: 6.00 Build 0)  -->
<svg version="1.1" id="Layer_1" xmlns="http://www.w3.org/2000/svg" xmlns:xlink="http://www.w3.org/1999/xlink" x="0px" y="0px"
	 viewBox="0 0 219.1 219.3" style="enable-background:new 0 0 219.1 219.3;" xml:space="preserve">
<style type="text/css">
	.st0{stroke:#000000;stroke-width:5;stroke-miterlimit:10;}
	.st1{fill:none;stroke:#000000;stroke-width:8;stroke-miterlimit:10;}
</style>
<g>
	<g id="Layer_2_1_">
		<g id="Layer_1-2">
			<path d="M46.3,88.3c1.7,1.2,2.2,3.1,1.6,6.5h-3.1C44.2,91.9,44.7,89.7,46.3,88.3z"/>
			<path d="M45.7,97.8h2.2c0.2,0,0.4,0.3,0.4,0.8v9.2c0,0.4-0.2,0.8-0.4,0.8H45c-0.2,0-0.4-0.3-0.4-0.8v-9.2c0-0.4,0.2-0.8,0.4-0.8
				H45.7"/>
			<path d="M46.4,108.5h2.8c0.7,0,1.2,0.9,1.2,2.1v6.5c0,0.2,0,0.5,0.1,0.7c0.2,0.8,0.6,2.7,1.5,3.4c0.5,0.4,0.8,1.1,0.8,1.7
				c0.4,3.8,1.2,14.2-0.1,22.1c0,0.1,0,0.1,0,0.2c-0.2,0.9-2,9.1-2.3,12.9c-0.1,1-0.6,1.8-1.2,1.8h-2.8"/>
			<path d="M46.4,159.8h-2.8c-0.6,0-1.1-0.8-1.2-1.8c-0.3-3.9-2.1-12-2.3-12.9c0-0.1,0-0.1,0-0.2c-1.3-7.9-0.5-18.3-0.1-22.1
				c0-0.7,0.3-1.3,0.8-1.7c0.9-0.7,1.4-2.6,1.5-3.4c0-0.2,0.1-0.5,0.1-0.7v-6.5c0-1.1,0.5-2.1,1.2-2.1h2.8"/>
			<g>
				<path class="st0" d="M168.2,50.3c0-0.1,0-0.1,0-0.2c0-0.1,0-0.1,0-0.2l0,0c0-0.1-0.1-0.1-0.1-0.1c0,0-0.1-0.1-0.1-0.1l0,0
					c-0.1,0-0.1,0-0.2,0c0,0-0.1,0-0.1,0L123.8,66c-0.2,0.1-0.3,0.2-0.3,0.4l0.5,27c0,0.1,0.1,0.2,0.1,0.3c0.1,0.1,0.2,0.1,0.3,0.1
					l27,0.5c0.2,0,0.4-0.1,0.4-0.3L168.2,50.3z M124.9,93l-0.5-26.2L167,50.9l-15.9,42.6L124.9,93z"/>
				<path class="st0" d="M137.1,80.8c-0.8-0.8-2-0.7-2.8,0c-0.8,0.8-0.7,2,0,2.8c0.8,0.7,2,0.7,2.7,0
					C137.9,82.8,137.9,81.6,137.1,80.8C137.2,80.8,137.1,80.8,137.1,80.8z M134.6,83.3c-0.6-0.6-0.6-1.7,0-2.3
					c0.6-0.6,1.7-0.6,2.3,0s0.6,1.7,0,2.3c0,0,0,0,0,0C136.3,84,135.2,84,134.6,83.3z"/>
			</g>
			<path class="st1" d="M87.6,181.1H60.9c-8.4,0-14.4-4.8-14.4-13.2v-31.3"/>
			<path class="st1" d="M120.8,97.5c-5.6,4-9,8.2-12.4,14.2c-2.3,4-3.4,8.8-3.3,13.2c0.1,7.5,0.1,15.1,0.1,22.7
				c0,4.8-0.2,9.6-0.2,14.4"/>
			<path class="st1" d="M105,134v31.5c0,21.2-35.4,21.1-35.5-1.4c0-10.1,8.6-17.7,17.8-17.8c7.7-0.1,14.9,4.9,17.7,12.7"/>
		</g>
	</g>
	<circle class="st1" cx="145.7" cy="72.1" r="38"/>
</g>
<circle class="st1" cx="109.4" cy="109.7" r="105.6"/>
</svg>
