<?xml version="1.0" encoding="utf-8"?>
<!-- Generator: Adobe Illustrator 24.1.0, SVG Export Plug-In . SVG Version: 6.00 Build 0)  -->
<svg version="1.1" id="Layer_1" xmlns="http://www.w3.org/2000/svg" xmlns:xlink="http://www.w3.org/1999/xlink" x="0px" y="0px"
	 viewBox="0 0 211.3 219.3" style="enable-background:new 0 0 211.3 219.3;" xml:space="preserve">
<style type="text/css">
	.st0{stroke:#000000;stroke-width:5;stroke-miterlimit:10;}
	.st1{fill:none;stroke:#000000;stroke-width:8;stroke-miterlimit:10;}
</style>
<g id="Layer_2_1_">
	<g id="Layer_1-2">
		<path d="M10,82c2.5,1.8,3.2,4.5,2.4,9.4H7.9C6.9,87,7.6,84,10,82z"/>
		<path d="M9,95.5h3.2c0.3,0,0.5,0.5,0.5,1.1v13.2c0,0.6-0.2,1.1-0.5,1.1H8c-0.3,0-0.5-0.5-0.5-1.1V96.6c0-0.6,0.2-1.1,0.5-1.1H9"/>
		<path d="M10.1,110.9h4c0.9,0,1.7,1.3,1.7,3v9.3c0,0.3,0,0.7,0.1,1c0.2,1.1,0.9,3.9,2.2,4.8c0.7,0.6,1.2,1.5,1.2,2.5
			c0.5,5.5,1.7,20.4-0.2,31.7c0,0.1,0,0.2,0,0.3c-0.3,1.3-2.8,13-3.3,18.6c-0.1,1.5-0.8,2.6-1.7,2.6h-4"/>
		<path d="M10.1,184.6h-4c-0.8,0-1.6-1.1-1.7-2.6c-0.4-5.6-3-17.3-3.3-18.6c0-0.1,0-0.2,0-0.3c-1.9-11.4-0.7-26.3-0.2-31.7
			c0-1,0.5-1.9,1.2-2.5c1.3-1,2-3.7,2.2-4.8c0.1-0.3,0.1-0.7,0.1-1v-9.3c0-1.7,0.8-3,1.7-3h4"/>
		<g>
			<path class="st0" d="M185.1,27.3c0-0.1,0-0.2,0-0.2c0-0.1,0-0.2,0-0.2l0,0c0-0.1-0.1-0.1-0.2-0.2c-0.1-0.1-0.1-0.1-0.2-0.2l0,0
				c-0.1,0-0.2,0-0.2,0c-0.1,0-0.1,0-0.2,0l-63,23.5c-0.3,0.1-0.4,0.4-0.4,0.6l0.8,38.7c0,0.2,0.1,0.3,0.2,0.5
				c0.1,0.1,0.3,0.2,0.4,0.2l38.7,0.8c0.3,0,0.5-0.2,0.6-0.4L185.1,27.3z M122.9,88.7l-0.7-37.6l61.2-22.8l-22.9,61.2L122.9,88.7z"
				/>
			<path class="st0" d="M140.4,71.1c-1.1-1.1-2.9-1.1-4,0c-1.1,1.1-1.1,2.9,0,4c1.1,1.1,2.8,1.1,3.9,0
				C141.5,74,141.5,72.3,140.4,71.1C140.4,71.2,140.4,71.1,140.4,71.1z M136.8,74.8c-0.9-0.9-0.9-2.4,0-3.3c0.9-0.9,2.4-0.9,3.3,0
				s0.9,2.4,0,3.3c0,0,0,0,0,0C139.2,75.7,137.7,75.7,136.8,74.8z"/>
		</g>
		<path class="st1" d="M69.3,215.2H30.9c-12.1,0-20.7-6.9-20.7-19v-44.9"/>
		<path class="st1" d="M116.9,95.2c-8.1,5.8-12.9,11.8-17.8,20.4c-3.3,5.8-4.9,12.6-4.8,18.9c0.1,10.8,0.2,21.6,0.2,32.6
			c0,6.9-0.2,13.8-0.3,20.6"/>
		<path class="st1" d="M94.2,147.5v45.2c0,30.5-50.9,30.3-50.9-2.1c0-14.5,12.4-25.4,25.5-25.6c11-0.2,21.3,7.1,25.4,18.2"/>
	</g>
</g>
<circle class="st1" cx="152.7" cy="58.6" r="54.6"/>
</svg>
