<?xml version="1.0" encoding="utf-8"?>
<!-- Generator: Adobe Illustrator 24.1.0, SVG Export Plug-In . SVG Version: 6.00 Build 0)  -->
<svg version="1.1" id="Layer_1" xmlns="http://www.w3.org/2000/svg" xmlns:xlink="http://www.w3.org/1999/xlink" x="0px" y="0px"
	 viewBox="0 0 111.9 113.1" style="enable-background:new 0 0 111.9 113.1;" xml:space="preserve">
<style type="text/css">
	.st0{fill:none;stroke:#EB0029;stroke-width:4;stroke-miterlimit:10;}
	.st1{fill:none;stroke:#000000;stroke-width:4;stroke-linecap:round;stroke-linejoin:round;stroke-miterlimit:10;}
	.st2{fill:none;stroke:#000000;stroke-width:2;stroke-linecap:round;stroke-linejoin:round;stroke-miterlimit:10;}
</style>
<circle class="st0" cx="55.9" cy="56.7" r="52.4"/>
<path class="st1" d="M84.7,80.1v-18c0-0.6,0-1.3-0.1-1.9C84,51.3,82,46.5,74.4,41.7"/>
<path class="st1" d="M31.7,83.7L31.7,83.7c0,5.4,4.6,9.7,10.1,9.7h29.5"/>
<ellipse class="st1" cx="71.3" cy="80.1" rx="13.3" ry="13.3"/>
<circle class="st1" cx="56.6" cy="33.2" r="19.8"/>
<g>
	<path d="M32.5,54.3h-1.4c-0.1,0-0.2,0.1-0.2,0.2v4.3c0,0.1,0.1,0.2,0.2,0.2h1.4c0.1,0,0.2-0.1,0.2-0.2v-4.3
		C32.7,54.5,32.6,54.3,32.5,54.3z"/>
	<path d="M32.7,53.8c0.3-1.5,0-2.4-0.9-2.9c-0.9,0.7-1.2,1.6-0.9,2.9H32.7z"/>
	<path d="M34.3,66.9c-0.3-0.6-0.5-1.2-0.5-1.9l0,0v-3.3c0-0.4-0.3-0.7-0.7-0.7h-2.7c-0.4,0-0.7,0.3-0.7,0.7V65l0,0
		c0,0.7-0.2,1.3-0.5,1.9c-0.7,1.2-1.2,2.5-1.2,3.8v7.2c0,1,0.1,2,0.3,3c0.1,0.4,0.2,1.1,0.4,1.5V83c0,0.4,0.5,0.7,1,0.7h4
		c0.6,0,1-0.3,1-0.7v-0.5c0.2-0.4,0.3-1.1,0.4-1.5c0.2-1,0.3-2,0.3-3v-7.2C35.5,69.3,35,68,34.3,66.9z"/>
</g>
<path d="M56.6,34.5c0.7,0,1.3-0.6,1.3-1.3s-0.6-1.3-1.3-1.3s-1.3,0.6-1.3,1.3C55.3,33.9,55.9,34.5,56.6,34.5z"/>
<polygon class="st2" points="52.8,29.4 52.8,37 60.4,37 67.7,22.2 "/>
</svg>
