<?xml version="1.0" encoding="utf-8"?>
<!-- Generator: Adobe Illustrator 24.1.0, SVG Export Plug-In . SVG Version: 6.00 Build 0)  -->
<svg version="1.1" id="Layer_1" xmlns="http://www.w3.org/2000/svg" xmlns:xlink="http://www.w3.org/1999/xlink" x="0px" y="0px"
	 viewBox="0 0 64 56" style="enable-background:new 0 0 64 56;" xml:space="preserve">
<g>
	<path d="M32,18c-5.5,0-10,4.5-10,10s4.5,10,10,10s10-4.5,10-10C42,22.5,37.5,18,32,18z M32,34c-3.3,0-6-2.7-6-6s2.7-6,6-6
		s6,2.7,6,6C38,31.3,35.3,34,32,34z M53.8,30.9c0.3-1.9,0.3-3.9,0-5.9l5.3-4.6c0.4-0.3,0.4-0.8,0.2-1.3l-6-10.4
		c-0.2-0.4-0.7-0.6-1.2-0.4l-6.6,2.2c-1.6-1.2-3.3-2.2-5.1-2.9L39,0.8C38.9,0.3,38.5,0,38,0H26c-0.5,0-0.9,0.3-1,0.8l-1.4,6.9
		c-1.8,0.7-3.5,1.7-5.1,2.9l-6.6-2.2c-0.5-0.2-0.9,0-1.2,0.4l-6,10.4c-0.2,0.4-0.2,0.9,0.2,1.3l5.3,4.6c-0.3,1.9-0.3,3.9,0,5.9
		L5,35.6c-0.4,0.3-0.4,0.8-0.2,1.3l6,10.4c0.2,0.4,0.7,0.6,1.2,0.4l6.6-2.2c1.6,1.2,3.3,2.2,5.1,2.9l1.4,6.9c0.1,0.5,0.5,0.8,1,0.8
		h12c0.5,0,0.9-0.3,1-0.8l1.4-6.9c1.8-0.7,3.5-1.7,5.1-2.9l6.6,2.2c0.5,0.2,0.9,0,1.2-0.4l6-10.4c0.2-0.4,0.2-0.9-0.2-1.3L53.8,30.9
		z M32,40c-6.6,0-12-5.4-12-12s5.4-12,12-12s12,5.4,12,12C44,34.6,38.6,40,32,40z"/>
</g>
</svg>
