<svg xmlns="http://www.w3.org/2000/svg" xmlns:xlink="http://www.w3.org/1999/xlink" width="438.35" height="292.02" viewBox="0 0 438.35 292.02"><defs><style>.cls-1{fill:#191919;}.cls-13,.cls-17,.cls-2{fill:none;}.cls-11,.cls-13,.cls-17,.cls-2{stroke:#fff;}.cls-13,.cls-2{stroke-miterlimit:1.18;}.cls-2{stroke-width:0.75px;}.cls-10,.cls-3,.cls-4,.cls-8{isolation:isolate;}.cls-10,.cls-12,.cls-4,.cls-8{font-size:20.66px;}.cls-10,.cls-12,.cls-14,.cls-4{fill:#fff;}.cls-12,.cls-4{font-family:Avenir-Medium, Avenir;font-weight:500;}.cls-5{letter-spacing:-0.05em;}.cls-6{letter-spacing:0em;}.cls-7{letter-spacing:-0.09em;}.cls-8{fill:#fff322;}.cls-10,.cls-14,.cls-8{font-family:Avenir-Light, Avenir;font-weight:300;}.cls-9{letter-spacing:-0.07em;}.cls-11{fill:#808285;}.cls-11,.cls-17{stroke-linecap:round;stroke-linejoin:round;}.cls-13{stroke-width:0.25px;}.cls-14{font-size:13.77px;}.cls-15{letter-spacing:-0.02em;}.cls-16{fill:url(#linear-gradient);}.cls-18{fill:url(#linear-gradient-2);}.cls-19{fill:url(#linear-gradient-3);}</style><linearGradient id="linear-gradient" x1="-72.3" y1="206.1" x2="165.1" y2="206.1" gradientUnits="userSpaceOnUse"><stop offset="0" stop-color="#ff0040"/><stop offset="1" stop-color="#2ace27"/></linearGradient><linearGradient id="linear-gradient-2" x1="-356.83" y1="206.1" x2="354.94" y2="206.1" xlink:href="#linear-gradient"/><linearGradient id="linear-gradient-3" x1="-319.53" y1="206.1" x2="345.61" y2="206.1" xlink:href="#linear-gradient"/></defs><g id="Layer_2" data-name="Layer 2"><g id="VarietiesOutline"><rect class="cls-1" x="0.38" y="0.38" width="437.6" height="291.27" rx="8"/><rect class="cls-2" x="0.38" y="0.38" width="437.6" height="291.27" rx="8"/><g class="cls-3"><text class="cls-4" transform="translate(24.58 38.99) scale(0.98 1)"><tspan class="cls-5">V</tspan><tspan class="cls-6" x="12.07" y="0">ARIET</tspan><tspan class="cls-7" x="69.46" y="0">Y</tspan><tspan x="80.2" y="0">: </tspan></text><text class="cls-8" transform="translate(126.75 38.99) scale(0.98 1)">BARPETI<tspan class="cls-9" x="80.76" y="0">Y</tspan><tspan class="cls-6" x="91.09" y="0">A</tspan></text><text class="cls-4" transform="translate(24.58 72.28) scale(0.98 1)">POPULARIT<tspan class="cls-7" x="111.73" y="0">Y</tspan><tspan x="122.47" y="0">:</tspan></text><text class="cls-10" transform="translate(163.78 72.28) scale(0.98 1)"><tspan xml:space="preserve"> 5.66%</tspan></text></g><rect class="cls-11" x="359.08" y="189.73" width="56.98" height="31.71"/><text class="cls-12" transform="translate(141.08 135.13) scale(0.98 1)">LEVEL OF PRIDE</text><line class="cls-13" x1="83.55" y1="91.47" x2="355.24" y2="91.47"/><text class="cls-14" transform="translate(25.45 252.09) scale(0.98 1)">neutral</text><text class="cls-14" transform="translate(28.55 171.8) scale(0.98 1)">12.5%</text><text class="cls-14" transform="translate(123.51 171.8) scale(0.98 1)">37.5%</text><text class="cls-14" transform="translate(266.49 171.92) scale(0.98 1)">35%</text><text class="cls-14" transform="translate(374.91 171.8) scale(0.98 1)">15%</text><text class="cls-14" transform="translate(110.61 252.09) scale(0.98 1)">somewhat <tspan x="12.76" y="16.53">p</tspan><tspan class="cls-15" x="21.18" y="16.53">r</tspan><tspan x="25.51" y="16.53">oud</tspan></text><text class="cls-14" transform="translate(266.76 252.09) scale(0.98 1)">very <tspan x="-6.01" y="16.53">p</tspan><tspan class="cls-15" x="2.41" y="16.53">r</tspan><tspan x="6.75" y="16.53">oud</tspan></text><text class="cls-14" transform="translate(375.06 255.15) scale(0.98 1)">N/A</text><rect class="cls-16" x="22.66" y="190.25" width="47.48" height="31.71"/><rect class="cls-17" x="22.75" y="190.25" width="47.48" height="31.71"/><rect class="cls-18" x="70.23" y="190.25" width="142.35" height="31.71"/><rect class="cls-17" x="70.23" y="190.25" width="142.44" height="31.71"/><rect class="cls-19" x="212.58" y="190.25" width="133.03" height="31.71"/><rect class="cls-17" x="212.67" y="190.25" width="132.94" height="31.71"/></g></g></svg>