<svg xmlns="http://www.w3.org/2000/svg" xmlns:xlink="http://www.w3.org/1999/xlink" viewBox="0 0 438.35 292.02"><defs><style>.cls-1{fill:#191919;}.cls-11,.cls-15,.cls-2{fill:none;}.cls-10,.cls-11,.cls-15,.cls-2{stroke:#fff;}.cls-11,.cls-2{stroke-miterlimit:1.18;}.cls-2{stroke-width:0.75px;}.cls-12,.cls-13,.cls-3,.cls-4,.cls-5,.cls-6,.cls-7,.cls-8,.cls-9{isolation:isolate;}.cls-4,.cls-5,.cls-6,.cls-7,.cls-8,.cls-9{font-size:20.66px;}.cls-12,.cls-13,.cls-4,.cls-5,.cls-6,.cls-9{fill:#fff;}.cls-4,.cls-5,.cls-6{font-family:Avenir-Medium, Avenir;font-weight:500;}.cls-4{letter-spacing:-0.05em;}.cls-6{letter-spacing:-0.09em;}.cls-7,.cls-8{fill:#fff322;}.cls-12,.cls-13,.cls-7,.cls-8,.cls-9{font-family:Avenir-Light, Avenir;font-weight:300;}.cls-8{letter-spacing:-0.07em;}.cls-10{fill:#808285;}.cls-10,.cls-15{stroke-linecap:round;stroke-linejoin:round;}.cls-11{stroke-width:0.25px;}.cls-12,.cls-13{font-size:13.77px;}.cls-13{letter-spacing:-0.02em;}.cls-14{fill:url(#linear-gradient);}.cls-16{fill:url(#linear-gradient-2);}.cls-17{fill:url(#linear-gradient-3);}</style><linearGradient id="linear-gradient" x1="-72.3" y1="87.89" x2="165.09" y2="87.89" gradientTransform="matrix(1, 0, 0, -1, 0, 293.99)" gradientUnits="userSpaceOnUse"><stop offset="0" stop-color="#ff0040"/><stop offset="1" stop-color="#2ace27"/></linearGradient><linearGradient id="linear-gradient-2" x1="-356.83" y1="87.89" x2="354.93" y2="87.89" xlink:href="#linear-gradient"/><linearGradient id="linear-gradient-3" x1="-319.54" y1="87.89" x2="345.6" y2="87.89" xlink:href="#linear-gradient"/></defs><g id="Layer_2" data-name="Layer 2"><g id="Layer_1-2" data-name="Layer 1"><g id="Layer_2-2" data-name="Layer 2"><g id="VarietiesOutline"><rect class="cls-1" x="0.38" y="0.38" width="437.6" height="291.27" rx="8"/><rect class="cls-2" x="0.38" y="0.38" width="437.6" height="291.27" rx="8"/><g class="cls-3"><text class="cls-4" transform="translate(24.58 38.99) scale(0.98 1)">V</text><text class="cls-5" transform="translate(36.4 38.99) scale(0.98 1)">ARIET</text><text class="cls-6" transform="translate(92.65 38.99) scale(0.98 1)">Y</text><text class="cls-5" transform="translate(103.17 38.99) scale(0.98 1)">:</text></g><g class="cls-3"><text class="cls-7" transform="translate(126.75 38.99) scale(0.98 1)">BARPETI</text><text class="cls-8" transform="translate(205.89 38.99) scale(0.98 1)">Y</text><text class="cls-7" transform="translate(216.01 38.99) scale(0.98 1)">A</text></g><g class="cls-3"><text class="cls-5" transform="translate(24.58 72.28) scale(0.98 1)">POPULARIT</text><text class="cls-6" transform="translate(134.07 72.28) scale(0.98 1)">Y</text><text class="cls-5" transform="translate(144.6 72.28) scale(0.98 1)">:</text></g><g class="cls-3"><text class="cls-9" transform="translate(163.78 72.28) scale(0.98 1)"><tspan xml:space="preserve"> 5.66%</tspan></text></g><rect class="cls-10" x="359.07" y="189.72" width="56.98" height="31.71"/><text class="cls-5" transform="translate(141.08 135.12) scale(0.98 1)">LEVEL OF PRIDE</text><line class="cls-11" x1="83.55" y1="91.47" x2="355.23" y2="91.47"/><text class="cls-12" transform="translate(25.45 252.08) scale(0.98 1)">neutral</text><text class="cls-12" transform="translate(28.55 171.79) scale(0.98 1)">12.5%</text><text class="cls-12" transform="translate(123.51 171.79) scale(0.98 1)">37.5%</text><text class="cls-12" transform="translate(266.49 171.91) scale(0.98 1)">35%</text><text class="cls-12" transform="translate(374.91 171.79) scale(0.98 1)">15%</text><g class="cls-3"><text class="cls-12" transform="translate(110.61 252.08) scale(0.98 1)">somewhat </text><text class="cls-12" transform="translate(123.11 268.62) scale(0.98 1)">p</text><text class="cls-13" transform="translate(131.36 268.62) scale(0.98 1)">r</text><text class="cls-12" transform="translate(135.6 268.62) scale(0.98 1)">oud</text></g><g class="cls-3"><text class="cls-12" transform="translate(266.76 252.08) scale(0.98 1)">very </text><text class="cls-12" transform="translate(260.87 268.62) scale(0.98 1)">p</text><text class="cls-13" transform="translate(269.12 268.62) scale(0.98 1)">r</text><text class="cls-12" transform="translate(273.37 268.62) scale(0.98 1)">oud</text></g><text class="cls-12" transform="translate(375.06 255.14) scale(0.98 1)">N/A</text><rect class="cls-14" x="22.65" y="190.25" width="47.48" height="31.71"/><rect class="cls-15" x="22.75" y="190.25" width="47.48" height="31.71"/><rect class="cls-16" x="70.23" y="190.25" width="142.35" height="31.71"/><rect class="cls-15" x="70.23" y="190.25" width="142.44" height="31.71"/><rect class="cls-17" x="212.58" y="190.25" width="133.03" height="31.71"/><rect class="cls-15" x="212.66" y="190.25" width="132.94" height="31.71"/></g></g></g></g></svg>