<svg xmlns="http://www.w3.org/2000/svg" xmlns:xlink="http://www.w3.org/1999/xlink" width="445.65" height="292.02" viewBox="0 0 445.65 292.02"><defs><style>.cls-1{fill:#191919;}.cls-14,.cls-17,.cls-2{fill:none;stroke:#fff;}.cls-14,.cls-2{stroke-miterlimit:1.18;}.cls-2{stroke-width:0.75px;}.cls-3,.cls-4,.cls-7{isolation:isolate;}.cls-13,.cls-4,.cls-7{font-size:20.66px;}.cls-11,.cls-13,.cls-4,.cls-7{fill:#fff;}.cls-13,.cls-4{font-family:Avenir-Medium, Avenir;font-weight:500;}.cls-5{letter-spacing:-0.05em;}.cls-6{letter-spacing:-0.09em;}.cls-11,.cls-7{font-family:Avenir-Light, Avenir;font-weight:300;}.cls-8{letter-spacing:-0.07em;}.cls-9{letter-spacing:0em;}.cls-10{letter-spacing:0em;}.cls-11{font-size:13.77px;}.cls-12{letter-spacing:-0.02em;}.cls-14{stroke-width:0.25px;}.cls-15{fill:url(#linear-gradient);}.cls-16{fill:url(#linear-gradient-2);}.cls-17{stroke-linecap:round;stroke-linejoin:round;}</style><linearGradient id="linear-gradient" x1="-444.36" y1="206.3" x2="340.56" y2="206.3" gradientUnits="userSpaceOnUse"><stop offset="0" stop-color="#ff0040"/><stop offset="1" stop-color="#2ace27"/></linearGradient><linearGradient id="linear-gradient-2" x1="-758.32" y1="206.3" x2="419.05" y2="206.3" xlink:href="#linear-gradient"/></defs><g id="Layer_2" data-name="Layer 2"><g id="VarietiesOutline"><rect class="cls-1" x="0.38" y="0.38" width="444.9" height="291.27" rx="8"/><rect class="cls-2" x="0.38" y="0.38" width="444.9" height="291.27" rx="8"/><g class="cls-3"><text class="cls-4" transform="translate(24.98 38.99)"><tspan class="cls-5">V</tspan><tspan x="12.07" y="0">ARIET</tspan><tspan class="cls-6" x="69.46" y="0">Y</tspan><tspan x="80.2" y="0">: </tspan></text><text class="cls-7" transform="translate(128.86 38.99)">BOJALI<tspan class="cls-8" x="70.06" y="0">Y</tspan><tspan class="cls-9" x="80.39" y="0">A</tspan></text><text class="cls-4" transform="translate(24.98 72.28)">POPULARIT<tspan class="cls-6" x="111.73" y="0">Y</tspan><tspan class="cls-10" x="122.47" y="0">:</tspan></text><text class="cls-7" transform="translate(166.51 72.28)">0%</text></g><text class="cls-11" transform="translate(92.31 171.36)">40%</text><text class="cls-11" transform="translate(288.54 171.36)">60%</text><text class="cls-11" transform="translate(76.92 251.9)">somewhat <tspan x="12.76" y="16.53">p</tspan><tspan class="cls-12" x="21.18" y="16.53">r</tspan><tspan x="25.51" y="16.53">oud</tspan></text><text class="cls-11" transform="translate(268.52 251.65)">very p<tspan class="cls-12" x="37" y="0">r</tspan><tspan x="41.33" y="0">oud</tspan></text><text class="cls-13" transform="translate(143.43 135.13)">LEVEL OF PRIDE</text><line class="cls-14" x1="84.94" y1="91.47" x2="361.16" y2="91.47"/><rect class="cls-15" x="26.59" y="190.19" width="156.98" height="32.22"/><rect class="cls-16" x="183.58" y="190.19" width="235.48" height="32.22"/><rect class="cls-17" x="26.59" y="190.19" width="156.98" height="32.22"/><rect class="cls-17" x="183.58" y="190.19" width="235.48" height="32.22"/></g></g></svg>