<svg xmlns="http://www.w3.org/2000/svg" xmlns:xlink="http://www.w3.org/1999/xlink" viewBox="0 0 438.35 292.02"><defs><style>.cls-1{fill:#191919;}.cls-12,.cls-16,.cls-2{fill:none;stroke:#fff;}.cls-12,.cls-2{stroke-miterlimit:1.18;}.cls-2{stroke-width:0.75px;}.cls-10,.cls-11,.cls-3,.cls-4,.cls-5,.cls-6,.cls-7,.cls-8,.cls-9{isolation:isolate;}.cls-4,.cls-5,.cls-6,.cls-7,.cls-8,.cls-9{font-size:20.66px;}.cls-10,.cls-11,.cls-4,.cls-5,.cls-6,.cls-9{fill:#fff;}.cls-4,.cls-5,.cls-6{font-family:Avenir-Medium, Avenir;font-weight:500;}.cls-4{letter-spacing:-0.05em;}.cls-6{letter-spacing:-0.09em;}.cls-7,.cls-8{fill:#9c5edb;}.cls-10,.cls-11,.cls-7,.cls-8,.cls-9{font-family:Avenir-Light, Avenir;font-weight:300;}.cls-8{letter-spacing:-0.07em;}.cls-10,.cls-11{font-size:13.77px;}.cls-11{letter-spacing:-0.02em;}.cls-12{stroke-width:0.25px;}.cls-13{fill:url(#linear-gradient);}.cls-14{fill:url(#linear-gradient-2);}.cls-15{fill:url(#linear-gradient-3);}.cls-16{stroke-linecap:round;stroke-linejoin:round;}</style><linearGradient id="linear-gradient" x1="-282.67" y1="87.69" x2="489.39" y2="87.69" gradientTransform="matrix(1, 0, 0, -1, 0, 293.99)" gradientUnits="userSpaceOnUse"><stop offset="0" stop-color="#ff0040"/><stop offset="1" stop-color="#2ace27"/></linearGradient><linearGradient id="linear-gradient-2" x1="-51.04" y1="87.69" x2="334.97" y2="87.69" xlink:href="#linear-gradient"/><linearGradient id="linear-gradient-3" x1="-359.87" y1="87.69" x2="412.19" y2="87.69" xlink:href="#linear-gradient"/></defs><g id="Layer_2" data-name="Layer 2"><g id="Layer_1-2" data-name="Layer 1"><g id="Layer_2-2" data-name="Layer 2"><g id="VarietiesOutline"><rect class="cls-1" x="0.38" y="0.38" width="437.6" height="291.27" rx="8"/><rect class="cls-2" x="0.38" y="0.38" width="437.6" height="291.27" rx="8"/><g class="cls-3"><text class="cls-4" transform="translate(24.58 38.99) scale(0.98 1)">V</text><text class="cls-5" transform="translate(36.4 38.99) scale(0.98 1)">ARIET</text><text class="cls-6" transform="translate(92.65 38.99) scale(0.98 1)">Y</text><text class="cls-5" transform="translate(103.17 38.99) scale(0.98 1)">:</text></g><g class="cls-3"><text class="cls-7" transform="translate(126.75 38.99) scale(0.98 1)">BORNOGORI</text><text class="cls-8" transform="translate(250.94 38.99) scale(0.98 1)">Y</text><text class="cls-7" transform="translate(261.06 38.99) scale(0.98 1)">A</text></g><g class="cls-3"><text class="cls-5" transform="translate(24.58 72.28) scale(0.98 1)">POPULARIT</text><text class="cls-6" transform="translate(134.07 72.28) scale(0.98 1)">Y</text><text class="cls-5" transform="translate(144.6 72.28) scale(0.98 1)">:</text></g><g class="cls-3"><text class="cls-9" transform="translate(163.78 72.28) scale(0.98 1)"><tspan xml:space="preserve"> 1.88%</tspan></text></g><text class="cls-10" transform="translate(82.42 251.64) scale(0.98 1)">neutral</text><text class="cls-10" transform="translate(90.8 171.35) scale(0.98 1)">40%</text><text class="cls-10" transform="translate(325.15 171.35) scale(0.98 1)">40%</text><text class="cls-10" transform="translate(206.83 171.35) scale(0.98 1)">20%</text><g class="cls-3"><text class="cls-10" transform="translate(188.42 251.64) scale(0.98 1)">somewhat </text><text class="cls-10" transform="translate(200.92 268.18) scale(0.98 1)">p</text><text class="cls-11" transform="translate(209.17 268.18) scale(0.98 1)">r</text><text class="cls-10" transform="translate(213.41 268.18) scale(0.98 1)">oud</text></g><g class="cls-3"><text class="cls-10" transform="translate(304.34 251.64) scale(0.98 1)">very p</text><text class="cls-11" transform="translate(340.59 251.64) scale(0.98 1)">r</text><text class="cls-10" transform="translate(344.84 251.64) scale(0.98 1)">oud</text></g><text class="cls-5" transform="translate(141.08 135.12) scale(0.98 1)">LEVEL OF PRIDE</text><line class="cls-12" x1="83.55" y1="91.47" x2="355.23" y2="91.47"/><rect class="cls-13" x="26.15" y="190.19" width="154.41" height="32.22"/><rect class="cls-14" x="180.57" y="190.19" width="77.2" height="32.22"/><rect class="cls-15" x="257.77" y="190.19" width="154.41" height="32.22"/><rect class="cls-16" x="26.15" y="190.19" width="154.41" height="32.22"/><rect class="cls-16" x="257.77" y="190.19" width="154.41" height="32.22"/><rect class="cls-16" x="180.57" y="190.19" width="77.2" height="32.22"/></g></g></g></g></svg>