<svg xmlns="http://www.w3.org/2000/svg" xmlns:xlink="http://www.w3.org/1999/xlink" viewBox="0 0 438.35 292.02"><defs><style>.cls-1{fill:#191919;}.cls-11,.cls-15,.cls-2{fill:none;stroke:#fff;}.cls-11,.cls-2{stroke-miterlimit:1.18;}.cls-2{stroke-width:0.75px;}.cls-10,.cls-3,.cls-4,.cls-5,.cls-6,.cls-7,.cls-8,.cls-9{isolation:isolate;}.cls-4,.cls-5,.cls-6,.cls-7,.cls-8{font-size:20.66px;}.cls-10,.cls-4,.cls-5,.cls-6,.cls-8,.cls-9{fill:#fff;}.cls-4,.cls-5,.cls-6{font-family:Avenir-Medium, Avenir;font-weight:500;}.cls-4{letter-spacing:-0.05em;}.cls-6{letter-spacing:-0.09em;}.cls-7{fill:#ff7a20;}.cls-10,.cls-7,.cls-8,.cls-9{font-family:Avenir-Light, Avenir;font-weight:300;}.cls-10,.cls-9{font-size:13.77px;}.cls-10{letter-spacing:-0.02em;}.cls-11{stroke-width:0.25px;}.cls-12{fill:url(#linear-gradient);}.cls-13{fill:url(#linear-gradient-2);}.cls-14{fill:url(#linear-gradient-3);}.cls-15{stroke-linecap:round;stroke-linejoin:round;}</style><linearGradient id="linear-gradient" x1="-51.16" y1="87.69" x2="142.13" y2="87.69" gradientTransform="matrix(1, 0, 0, -1, 0, 293.99)" gradientUnits="userSpaceOnUse"><stop offset="0" stop-color="#ff0040"/><stop offset="1" stop-color="#2ace27"/></linearGradient><linearGradient id="linear-gradient-2" x1="-282.6" y1="87.69" x2="296.44" y2="87.69" xlink:href="#linear-gradient"/><linearGradient id="linear-gradient-3" x1="-745.81" y1="87.69" x2="412.23" y2="87.69" xlink:href="#linear-gradient"/></defs><g id="Layer_2" data-name="Layer 2"><g id="Layer_1-2" data-name="Layer 1"><g id="Layer_2-2" data-name="Layer 2"><g id="VarietiesOutline"><rect class="cls-1" x="0.38" y="0.38" width="437.6" height="291.27" rx="8"/><rect class="cls-2" x="0.38" y="0.38" width="437.6" height="291.27" rx="8"/><g class="cls-3"><text class="cls-4" transform="translate(24.58 38.99) scale(0.98 1)">V</text><text class="cls-5" transform="translate(36.4 38.99) scale(0.98 1)">ARIET</text><text class="cls-6" transform="translate(92.65 38.99) scale(0.98 1)">Y</text><text class="cls-5" transform="translate(103.17 38.99) scale(0.98 1)">:</text></g><text class="cls-7" transform="translate(126.75 38.99) scale(0.98 1)">DARRANGIA</text><g class="cls-3"><text class="cls-5" transform="translate(24.58 72.28) scale(0.98 1)">POPULARIT</text><text class="cls-6" transform="translate(134.07 72.28) scale(0.98 1)">Y</text><text class="cls-5" transform="translate(144.6 72.28) scale(0.98 1)">:</text></g><g class="cls-3"><text class="cls-8" transform="translate(163.78 72.28) scale(0.98 1)"><tspan xml:space="preserve"> 1.88%</tspan></text></g><text class="cls-9" transform="translate(24.51 251.64) scale(0.98 1)">neutral</text><text class="cls-9" transform="translate(32.93 171.35) scale(0.98 1)">10%</text><text class="cls-9" transform="translate(283.84 171.35) scale(0.98 1)">60%</text><text class="cls-9" transform="translate(110.13 171.35) scale(0.98 1)">30%</text><g class="cls-3"><text class="cls-9" transform="translate(91.95 251.64) scale(0.98 1)">somewhat </text><text class="cls-9" transform="translate(104.45 268.18) scale(0.98 1)">p</text><text class="cls-10" transform="translate(112.7 268.18) scale(0.98 1)">r</text><text class="cls-9" transform="translate(116.95 268.18) scale(0.98 1)">oud</text></g><g class="cls-3"><text class="cls-9" transform="translate(264.18 251.64) scale(0.98 1)">very p</text><text class="cls-10" transform="translate(300.43 251.64) scale(0.98 1)">r</text><text class="cls-9" transform="translate(304.68 251.64) scale(0.98 1)">oud</text></g><text class="cls-5" transform="translate(141.08 135.12) scale(0.98 1)">LEVEL OF PRIDE</text><line class="cls-11" x1="83.55" y1="91.47" x2="355.23" y2="91.47"/><rect class="cls-12" x="26.15" y="190.19" width="38.66" height="32.22"/><rect class="cls-13" x="64.83" y="190.19" width="115.81" height="32.22"/><rect class="cls-14" x="180.63" y="190.19" width="231.61" height="32.22"/><rect class="cls-15" x="180.63" y="190.19" width="231.61" height="32.22"/><rect class="cls-15" x="64.83" y="190.19" width="115.81" height="32.22"/><rect class="cls-15" x="26.15" y="190.19" width="38.6" height="32.22"/></g></g></g></g></svg>