<svg xmlns="http://www.w3.org/2000/svg" xmlns:xlink="http://www.w3.org/1999/xlink" width="438.35" height="292.02" viewBox="0 0 438.35 292.02"><defs><style>.cls-1{fill:#191919;}.cls-14,.cls-16,.cls-2{fill:none;stroke:#fff;}.cls-14,.cls-2{stroke-miterlimit:1.18;}.cls-2{stroke-width:0.75px;}.cls-10,.cls-3,.cls-4,.cls-8{isolation:isolate;}.cls-10,.cls-13,.cls-4,.cls-8{font-size:20.66px;}.cls-10,.cls-11,.cls-13,.cls-4{fill:#fff;}.cls-13,.cls-4{font-family:Avenir-Medium, Avenir;font-weight:500;}.cls-5{letter-spacing:-0.05em;}.cls-6{letter-spacing:0em;}.cls-7{letter-spacing:-0.09em;}.cls-8{fill:#ff5aef;}.cls-10,.cls-11,.cls-8{font-family:Avenir-Light, Avenir;font-weight:300;}.cls-9{letter-spacing:-0.07em;}.cls-11{font-size:13.77px;}.cls-12{letter-spacing:-0.02em;}.cls-14{stroke-width:0.25px;}.cls-15{fill:url(#linear-gradient);}.cls-16{stroke-linecap:round;stroke-linejoin:round;}</style><linearGradient id="linear-gradient" x1="-1517.92" y1="206.3" x2="412.18" y2="206.3" gradientUnits="userSpaceOnUse"><stop offset="0" stop-color="#ff0040"/><stop offset="1" stop-color="#2ace27"/></linearGradient></defs><g id="Layer_2" data-name="Layer 2"><g id="VarietiesOutline"><rect class="cls-1" x="0.38" y="0.38" width="437.6" height="291.27" rx="8"/><rect class="cls-2" x="0.38" y="0.38" width="437.6" height="291.27" rx="8"/><g class="cls-3"><text class="cls-4" transform="translate(24.58 38.99) scale(0.98 1)"><tspan class="cls-5">V</tspan><tspan class="cls-6" x="12.07" y="0">ARIET</tspan><tspan class="cls-7" x="69.46" y="0">Y</tspan><tspan x="80.2" y="0">: </tspan></text><text class="cls-8" transform="translate(126.75 38.99) scale(0.98 1)">GOAL<tspan class="cls-9" x="57.79" y="0">P</tspan><tspan x="68.12" y="0">ARI</tspan><tspan class="cls-9" x="99.89" y="0">Y</tspan><tspan x="110.22" y="0">A</tspan></text><text class="cls-4" transform="translate(24.58 72.28) scale(0.98 1)">POPULARIT<tspan class="cls-7" x="111.73" y="0">Y</tspan><tspan x="122.47" y="0">:</tspan></text><text class="cls-10" transform="translate(163.78 72.28) scale(0.98 1)"><tspan xml:space="preserve"> 5.66%</tspan></text></g><text class="cls-11" transform="translate(199.99 171.36) scale(0.98 1)">100%</text><text class="cls-11" transform="translate(183.82 251.65) scale(0.98 1)">very p<tspan class="cls-12" x="36.99" y="0">r</tspan><tspan x="41.33" y="0">oud</tspan></text><text class="cls-13" transform="translate(141.08 135.13) scale(0.98 1)">LEVEL OF PRIDE</text><line class="cls-14" x1="83.55" y1="91.47" x2="355.24" y2="91.47"/><rect class="cls-15" x="26.16" y="190.19" width="386.02" height="32.22"/><rect class="cls-16" x="26.16" y="190.19" width="386.02" height="32.22"/></g></g></svg>