<svg xmlns="http://www.w3.org/2000/svg" xmlns:xlink="http://www.w3.org/1999/xlink" viewBox="0 0 438.35 292.02"><defs><style>.cls-1{fill:#191919;}.cls-12,.cls-14,.cls-2{fill:none;stroke:#fff;}.cls-12,.cls-2{stroke-miterlimit:1.18;}.cls-2{stroke-width:0.75px;}.cls-10,.cls-11,.cls-3,.cls-4,.cls-5,.cls-6,.cls-7,.cls-8,.cls-9{isolation:isolate;}.cls-4,.cls-5,.cls-6,.cls-7,.cls-8,.cls-9{font-size:20.66px;}.cls-10,.cls-11,.cls-4,.cls-5,.cls-6,.cls-9{fill:#fff;}.cls-4,.cls-5,.cls-6{font-family:Avenir-Medium, Avenir;font-weight:500;}.cls-4{letter-spacing:-0.05em;}.cls-6{letter-spacing:-0.09em;}.cls-7,.cls-8{fill:#ff5aef;}.cls-10,.cls-11,.cls-7,.cls-8,.cls-9{font-family:Avenir-Light, Avenir;font-weight:300;}.cls-8{letter-spacing:-0.07em;}.cls-10,.cls-11{font-size:13.77px;}.cls-11{letter-spacing:-0.02em;}.cls-12{stroke-width:0.25px;}.cls-13{fill:url(#linear-gradient);}.cls-14{stroke-linecap:round;stroke-linejoin:round;}</style><linearGradient id="linear-gradient" x1="-1517.92" y1="87.69" x2="412.17" y2="87.69" gradientTransform="matrix(1, 0, 0, -1, 0, 293.99)" gradientUnits="userSpaceOnUse"><stop offset="0" stop-color="#ff0040"/><stop offset="1" stop-color="#2ace27"/></linearGradient></defs><g id="Layer_2" data-name="Layer 2"><g id="Layer_1-2" data-name="Layer 1"><g id="Layer_2-2" data-name="Layer 2"><g id="VarietiesOutline"><rect class="cls-1" x="0.38" y="0.38" width="437.6" height="291.27" rx="8"/><rect class="cls-2" x="0.38" y="0.38" width="437.6" height="291.27" rx="8"/><g class="cls-3"><text class="cls-4" transform="translate(24.58 38.99) scale(0.98 1)">V</text><text class="cls-5" transform="translate(36.4 38.99) scale(0.98 1)">ARIET</text><text class="cls-6" transform="translate(92.65 38.99) scale(0.98 1)">Y</text><text class="cls-5" transform="translate(103.17 38.99) scale(0.98 1)">:</text></g><g class="cls-3"><text class="cls-7" transform="translate(126.75 38.99) scale(0.98 1)">GOAL</text><text class="cls-8" transform="translate(183.38 38.99) scale(0.98 1)">P</text><text class="cls-7" transform="translate(193.5 38.99) scale(0.98 1)">ARI</text><text class="cls-8" transform="translate(224.64 38.99) scale(0.98 1)">Y</text><text class="cls-7" transform="translate(234.76 38.99) scale(0.98 1)">A</text></g><g class="cls-3"><text class="cls-5" transform="translate(24.58 72.28) scale(0.98 1)">POPULARIT</text><text class="cls-6" transform="translate(134.07 72.28) scale(0.98 1)">Y</text><text class="cls-5" transform="translate(144.6 72.28) scale(0.98 1)">:</text></g><g class="cls-3"><text class="cls-9" transform="translate(163.78 72.28) scale(0.98 1)"><tspan xml:space="preserve"> 5.66%</tspan></text></g><text class="cls-10" transform="translate(199.99 171.35) scale(0.98 1)">100%</text><g class="cls-3"><text class="cls-10" transform="translate(183.82 251.64) scale(0.98 1)">very p</text><text class="cls-11" transform="translate(220.07 251.64) scale(0.98 1)">r</text><text class="cls-10" transform="translate(224.32 251.64) scale(0.98 1)">oud</text></g><text class="cls-5" transform="translate(141.08 135.12) scale(0.98 1)">LEVEL OF PRIDE</text><line class="cls-12" x1="83.55" y1="91.47" x2="355.23" y2="91.47"/><rect class="cls-13" x="26.15" y="190.19" width="386.02" height="32.22"/><rect class="cls-14" x="26.15" y="190.19" width="386.02" height="32.22"/></g></g></g></g></svg>