<svg xmlns="http://www.w3.org/2000/svg" xmlns:xlink="http://www.w3.org/1999/xlink" viewBox="0 0 438.35 292.84"><defs><style>.cls-1{fill:#191919;}.cls-13,.cls-18,.cls-2{fill:none;stroke-miterlimit:1.18;}.cls-12,.cls-13,.cls-18,.cls-2{stroke:#fff;}.cls-2{stroke-width:0.75px;}.cls-10,.cls-11,.cls-3,.cls-4,.cls-5,.cls-6,.cls-7,.cls-8,.cls-9{isolation:isolate;}.cls-4,.cls-5,.cls-6,.cls-7,.cls-8,.cls-9{font-size:18px;}.cls-10,.cls-11,.cls-4,.cls-5,.cls-6,.cls-9{fill:#fff;}.cls-4,.cls-5,.cls-6{font-family:Avenir-Medium, Avenir;font-weight:500;}.cls-4{letter-spacing:-0.05em;}.cls-6{letter-spacing:-0.09em;}.cls-7,.cls-8{fill:#ff2c22;}.cls-10,.cls-11,.cls-7,.cls-8,.cls-9{font-family:Avenir-Light, Avenir;font-weight:300;}.cls-8{letter-spacing:-0.07em;}.cls-10,.cls-11{font-size:12px;}.cls-11{letter-spacing:-0.02em;}.cls-12{fill:#808285;stroke-linecap:round;stroke-linejoin:round;}.cls-13{stroke-width:0.25px;}.cls-14{fill:url(#linear-gradient);}.cls-15{fill:url(#linear-gradient-3);}.cls-16{fill:url(#linear-gradient-4);}.cls-17{fill:url(#linear-gradient-5);}</style><linearGradient id="linear-gradient" x1="49.63" y1="114.21" x2="83.83" y2="114.21" gradientTransform="matrix(1, 0, 0, -1, 0, 293.99)" gradientUnits="userSpaceOnUse"><stop offset="0" stop-color="#ff0040"/><stop offset="1" stop-color="#2ace27"/></linearGradient><linearGradient id="linear-gradient-3" x1="-25.6" y1="114.21" x2="196.66" y2="114.21" xlink:href="#linear-gradient"/><linearGradient id="linear-gradient-4" x1="-261.52" y1="114.21" x2="353.94" y2="114.21" xlink:href="#linear-gradient"/><linearGradient id="linear-gradient-5" x1="-288.86" y1="114.21" x2="360.78" y2="114.21" xlink:href="#linear-gradient"/></defs><g id="Layer_2" data-name="Layer 2"><g id="Layer_1-2" data-name="Layer 1"><g id="Layer_2-2" data-name="Layer 2"><g id="VarietiesOutline"><rect class="cls-1" x="0.38" y="0.38" width="437.6" height="292.09" rx="8"/><rect class="cls-2" x="0.38" y="0.38" width="437.6" height="292.09" rx="8"/><g class="cls-3"><text class="cls-4" transform="translate(41.79 34.02)">V</text><text class="cls-5" transform="translate(52.3 34.02)">ARIET</text><text class="cls-6" transform="translate(102.32 34.02)">Y</text><text class="cls-5" transform="translate(111.67 34.02)">:</text></g><g class="cls-3"><text class="cls-7" transform="translate(132.29 34.02)">KAMRUPI</text><text class="cls-8" transform="translate(209.63 34.02)">Y</text><text class="cls-7" transform="translate(218.63 34.02)">A</text></g><g class="cls-3"><text class="cls-5" transform="translate(41.79 63.02)">POPULARIT</text><text class="cls-6" transform="translate(139.14 63.02)">Y</text><text class="cls-5" transform="translate(148.5 63.02)">:</text></g><g class="cls-3"><text class="cls-9" transform="translate(165.09 63.02)"><tspan xml:space="preserve"> 7.54%</tspan></text></g><g class="cls-3"><text class="cls-10" transform="translate(23.05 219.22)">not p</text><text class="cls-11" transform="translate(51.3 219.22)">r</text><text class="cls-10" transform="translate(55.08 219.22)">oud </text><text class="cls-10" transform="translate(45.64 233.63)">+ </text><text class="cls-10" transform="translate(22.4 248.02)">somewhat </text><text class="cls-10" transform="translate(23.05 262.42)">not p</text><text class="cls-11" transform="translate(51.3 262.42)">r</text><text class="cls-10" transform="translate(55.08 262.42)">oud</text></g><text class="cls-10" transform="translate(113.04 149.34)">13%</text><text class="cls-10" transform="translate(34.51 149.34)">2+2%</text><text class="cls-10" transform="translate(322.09 149.69)">38%</text><text class="cls-10" transform="translate(393.42 149.34)">9%</text><text class="cls-10" transform="translate(221.44 149.34)">36%</text><g class="cls-3"><text class="cls-10" transform="translate(205.33 219.22)">somewhat </text><text class="cls-10" transform="translate(216.45 233.63)">p</text><text class="cls-11" transform="translate(223.78 233.63)">r</text><text class="cls-10" transform="translate(227.55 233.63)">oud</text></g><text class="cls-10" transform="translate(105.63 219.22)">neutral</text><g class="cls-3"><text class="cls-10" transform="translate(304.66 219.22)">very p</text><text class="cls-11" transform="translate(336.89 219.22)">r</text><text class="cls-10" transform="translate(340.67 219.22)">oud</text></g><text class="cls-10" transform="translate(390.43 219.22)">N/A</text><text class="cls-5" transform="translate(151.3 117.78)">LEVEL OF PRIDE</text><rect class="cls-12" x="386.04" y="165.75" width="30.77" height="28.07"/><line class="cls-13" x1="57.86" y1="87.48" x2="380.73" y2="87.48"/><rect class="cls-14" x="49.63" y="165.75" width="6.84" height="28.07"/><rect class="cls-14" x="56.47" y="165.75" width="6.84" height="28.07"/><rect class="cls-15" x="63.31" y="165.75" width="44.45" height="28.07"/><rect class="cls-16" x="107.76" y="165.75" width="123.09" height="28.07"/><rect class="cls-17" x="230.86" y="165.75" width="129.93" height="28.07"/><rect class="cls-18" x="63.31" y="165.75" width="44.45" height="28.07"/><rect class="cls-18" x="56.47" y="165.75" width="6.84" height="28.07"/><rect class="cls-18" x="49.63" y="165.75" width="6.84" height="28.07"/><rect class="cls-18" x="107.76" y="165.75" width="123.09" height="28.07"/><rect class="cls-18" x="230.86" y="165.75" width="129.93" height="28.07"/></g></g></g></g></svg>