<svg xmlns="http://www.w3.org/2000/svg" xmlns:xlink="http://www.w3.org/1999/xlink" width="438.35" height="292.84" viewBox="0 0 438.35 292.84"><defs><style>.cls-1{fill:#191919;}.cls-16,.cls-2,.cls-22{fill:none;stroke-miterlimit:1.18;}.cls-15,.cls-16,.cls-2,.cls-22{stroke:#fff;}.cls-2{stroke-width:0.75px;}.cls-11,.cls-3,.cls-4,.cls-7{isolation:isolate;}.cls-11,.cls-14,.cls-4,.cls-7{font-size:18px;}.cls-11,.cls-12,.cls-14,.cls-4{fill:#fff;}.cls-14,.cls-4{font-family:Avenir-Medium, Avenir;font-weight:500;}.cls-5{letter-spacing:-0.05em;}.cls-6{letter-spacing:-0.09em;}.cls-7{fill:#ff2c22;}.cls-11,.cls-12,.cls-7{font-family:Avenir-Light, Avenir;font-weight:300;}.cls-8{letter-spacing:-0.07em;}.cls-9{letter-spacing:0em;}.cls-10{letter-spacing:0em;}.cls-12{font-size:12px;}.cls-13{letter-spacing:-0.02em;}.cls-15{fill:#808285;stroke-linecap:round;stroke-linejoin:round;}.cls-16{stroke-width:0.25px;}.cls-17{fill:url(#linear-gradient);}.cls-18{fill:url(#linear-gradient-2);}.cls-19{fill:url(#linear-gradient-3);}.cls-20{fill:url(#linear-gradient-4);}.cls-21{fill:url(#linear-gradient-5);}</style><linearGradient id="linear-gradient" x1="49.64" y1="179.79" x2="83.83" y2="179.79" gradientUnits="userSpaceOnUse"><stop offset="0" stop-color="#ff0040"/><stop offset="1" stop-color="#2ace27"/></linearGradient><linearGradient id="linear-gradient-2" x1="49.64" y1="179.79" x2="83.83" y2="179.79" xlink:href="#linear-gradient"/><linearGradient id="linear-gradient-3" x1="-25.59" y1="179.79" x2="196.66" y2="179.79" xlink:href="#linear-gradient"/><linearGradient id="linear-gradient-4" x1="-261.52" y1="179.79" x2="353.95" y2="179.79" xlink:href="#linear-gradient"/><linearGradient id="linear-gradient-5" x1="-288.87" y1="179.79" x2="360.79" y2="179.79" xlink:href="#linear-gradient"/></defs><g id="Layer_2" data-name="Layer 2"><g id="VarietiesOutline"><rect class="cls-1" x="0.38" y="0.38" width="437.6" height="292.09" rx="8"/><rect class="cls-2" x="0.38" y="0.38" width="437.6" height="292.09" rx="8"/><g class="cls-3"><text class="cls-4" transform="translate(41.8 34.02)"><tspan class="cls-5">V</tspan><tspan x="10.51" y="0">ARIET</tspan><tspan class="cls-6" x="60.52" y="0">Y</tspan><tspan x="69.88" y="0">: </tspan></text><text class="cls-7" transform="translate(132.3 34.02)">KAMRUPI<tspan class="cls-8" x="77.33" y="0">Y</tspan><tspan class="cls-9" x="86.33" y="0">A</tspan></text><text class="cls-4" transform="translate(41.8 63.02)">POPULARIT<tspan class="cls-6" x="97.34" y="0">Y</tspan><tspan class="cls-10" x="106.7" y="0">:</tspan></text><text class="cls-11" transform="translate(165.1 63.02)"><tspan xml:space="preserve"> 7.54%</tspan></text></g><text class="cls-12" transform="translate(23.06 219.23)">not p<tspan class="cls-13" x="28.25" y="0">r</tspan><tspan x="32.03" y="0">oud </tspan><tspan x="22.58" y="14.4">+ </tspan><tspan x="-0.66" y="28.8">somewhat </tspan><tspan x="0" y="43.2">not p</tspan><tspan class="cls-13" x="28.25" y="43.2">r</tspan><tspan x="32.03" y="43.2">oud</tspan></text><text class="cls-12" transform="translate(113.05 149.35)">13%</text><text class="cls-12" transform="translate(34.51 149.35)">2+2%</text><text class="cls-12" transform="translate(322.1 149.69)">38%</text><text class="cls-12" transform="translate(393.43 149.35)">9%</text><text class="cls-12" transform="translate(221.44 149.35)">36%</text><text class="cls-12" transform="translate(205.33 219.23)">somewhat <tspan x="11.12" y="14.4">p</tspan><tspan class="cls-13" x="18.45" y="14.4">r</tspan><tspan x="22.23" y="14.4">oud</tspan></text><text class="cls-12" transform="translate(105.63 219.23)">neutral</text><text class="cls-12" transform="translate(304.66 219.23)">very p<tspan class="cls-13" x="32.23" y="0">r</tspan><tspan x="36.01" y="0">oud</tspan></text><text class="cls-12" transform="translate(390.44 219.23)">N/A</text><text class="cls-14" transform="translate(151.31 117.78)">LEVEL OF PRIDE</text><rect class="cls-15" x="386.05" y="165.75" width="30.77" height="28.07"/><line class="cls-16" x1="57.87" y1="87.49" x2="380.74" y2="87.49"/><rect class="cls-17" x="49.64" y="165.75" width="6.84" height="28.07"/><rect class="cls-18" x="56.47" y="165.75" width="6.84" height="28.07"/><rect class="cls-19" x="63.31" y="165.75" width="44.45" height="28.07"/><rect class="cls-20" x="107.76" y="165.75" width="123.09" height="28.07"/><rect class="cls-21" x="230.86" y="165.75" width="129.93" height="28.07"/><rect class="cls-22" x="63.31" y="165.75" width="44.45" height="28.07"/><rect class="cls-22" x="56.47" y="165.75" width="6.84" height="28.07"/><rect class="cls-22" x="49.64" y="165.75" width="6.84" height="28.07"/><rect class="cls-22" x="107.76" y="165.75" width="123.09" height="28.07"/><rect class="cls-22" x="230.86" y="165.75" width="129.93" height="28.07"/></g></g></svg>