<svg xmlns="http://www.w3.org/2000/svg" xmlns:xlink="http://www.w3.org/1999/xlink" viewBox="0 0 438.35 292.02"><defs><style>.cls-1{fill:#191919;}.cls-12,.cls-16,.cls-2{fill:none;stroke-miterlimit:1.18;}.cls-12,.cls-13,.cls-16,.cls-2{stroke:#fff;}.cls-2{stroke-width:0.75px;}.cls-10,.cls-11,.cls-3,.cls-4,.cls-5,.cls-6,.cls-7,.cls-8,.cls-9{isolation:isolate;}.cls-4,.cls-5,.cls-6,.cls-7,.cls-8,.cls-9{font-size:20.66px;}.cls-10,.cls-11,.cls-4,.cls-5,.cls-6,.cls-9{fill:#fff;}.cls-4,.cls-5,.cls-6{font-family:Avenir-Medium, Avenir;font-weight:500;}.cls-4{letter-spacing:-0.05em;}.cls-6{letter-spacing:-0.09em;}.cls-7,.cls-8{fill:#2e8900;}.cls-10,.cls-11,.cls-7,.cls-8,.cls-9{font-family:Avenir-Light, Avenir;font-weight:300;}.cls-8{letter-spacing:-0.07em;}.cls-10,.cls-11{font-size:13.77px;}.cls-11{letter-spacing:-0.02em;}.cls-12{stroke-width:0.25px;}.cls-13{fill:#808285;stroke-linecap:round;stroke-linejoin:round;}.cls-14{fill:url(#linear-gradient);}.cls-15{fill:url(#linear-gradient-2);}</style><linearGradient id="linear-gradient" x1="-433.31" y1="87.95" x2="326.33" y2="87.95" gradientTransform="matrix(1, 0, 0, -1, 0, 293.99)" gradientUnits="userSpaceOnUse"><stop offset="0" stop-color="#ff0040"/><stop offset="1" stop-color="#2ace27"/></linearGradient><linearGradient id="linear-gradient-2" x1="-494.12" y1="87.95" x2="341.54" y2="87.95" xlink:href="#linear-gradient"/></defs><g id="Layer_2" data-name="Layer 2"><g id="Layer_1-2" data-name="Layer 1"><g id="Layer_2-2" data-name="Layer 2"><g id="VarietiesOutline"><rect class="cls-1" x="0.38" y="0.38" width="437.6" height="291.27" rx="8"/><rect class="cls-2" x="0.38" y="0.38" width="437.6" height="291.27" rx="8"/><g class="cls-3"><text class="cls-4" transform="translate(24.58 38.99) scale(0.98 1)">V</text><text class="cls-5" transform="translate(36.4 38.99) scale(0.98 1)">ARIET</text><text class="cls-6" transform="translate(92.65 38.99) scale(0.98 1)">Y</text><text class="cls-5" transform="translate(103.17 38.99) scale(0.98 1)">:</text></g><g class="cls-3"><text class="cls-7" transform="translate(126.75 38.99) scale(0.98 1)">NALBARI</text><text class="cls-8" transform="translate(210.39 38.99) scale(0.98 1)">Y</text><text class="cls-7" transform="translate(220.51 38.99) scale(0.98 1)">A</text></g><g class="cls-3"><text class="cls-5" transform="translate(24.58 72.28) scale(0.98 1)">POPULARIT</text><text class="cls-6" transform="translate(134.07 72.28) scale(0.98 1)">Y</text><text class="cls-5" transform="translate(144.6 72.28) scale(0.98 1)">:</text></g><g class="cls-3"><text class="cls-9" transform="translate(163.78 72.28) scale(0.98 1)"><tspan xml:space="preserve"> 3.77%</tspan></text></g><text class="cls-10" transform="translate(373.06 251.64) scale(0.98 1)">N/A</text><text class="cls-10" transform="translate(85.88 171.35) scale(0.98 1)">40%</text><text class="cls-10" transform="translate(372.92 171.35) scale(0.98 1)">16%</text><text class="cls-10" transform="translate(245.41 171.35) scale(0.98 1)">44%</text><g class="cls-3"><text class="cls-10" transform="translate(67.69 251.64) scale(0.98 1)">somewhat </text><text class="cls-10" transform="translate(80.19 268.18) scale(0.98 1)">p</text><text class="cls-11" transform="translate(88.44 268.18) scale(0.98 1)">r</text><text class="cls-10" transform="translate(92.68 268.18) scale(0.98 1)">oud</text></g><g class="cls-3"><text class="cls-10" transform="translate(225.72 251.64) scale(0.98 1)">very p</text><text class="cls-11" transform="translate(261.97 251.64) scale(0.98 1)">r</text><text class="cls-10" transform="translate(266.22 251.64) scale(0.98 1)">oud</text></g><text class="cls-5" transform="translate(141.08 135.12) scale(0.98 1)">LEVEL OF PRIDE</text><line class="cls-12" x1="83.55" y1="91.47" x2="355.23" y2="91.47"/><rect class="cls-13" x="355.08" y="190.19" width="60.77" height="31.71"/><rect class="cls-14" x="22.47" y="190.19" width="151.93" height="31.7"/><rect class="cls-15" x="174.41" y="190.19" width="167.13" height="31.7"/><rect class="cls-16" x="174.41" y="190.19" width="167.13" height="31.7"/><rect class="cls-16" x="22.47" y="190.19" width="151.93" height="31.7"/></g></g></g></g></svg>