<svg xmlns="http://www.w3.org/2000/svg" xmlns:xlink="http://www.w3.org/1999/xlink" width="438.35" height="292.02" viewBox="0 0 438.35 292.02"><defs><style>.cls-1{fill:#191919;}.cls-14,.cls-18,.cls-2{fill:none;stroke-miterlimit:1.18;}.cls-14,.cls-15,.cls-18,.cls-2{stroke:#fff;}.cls-2{stroke-width:0.75px;}.cls-10,.cls-3,.cls-4,.cls-8{isolation:isolate;}.cls-10,.cls-13,.cls-4,.cls-8{font-size:20.66px;}.cls-10,.cls-11,.cls-13,.cls-4{fill:#fff;}.cls-13,.cls-4{font-family:Avenir-Medium, Avenir;font-weight:500;}.cls-5{letter-spacing:-0.05em;}.cls-6{letter-spacing:0em;}.cls-7{letter-spacing:-0.09em;}.cls-8{fill:#2e8900;}.cls-10,.cls-11,.cls-8{font-family:Avenir-Light, Avenir;font-weight:300;}.cls-9{letter-spacing:-0.07em;}.cls-11{font-size:13.77px;}.cls-12{letter-spacing:-0.02em;}.cls-14{stroke-width:0.25px;}.cls-15{fill:#808285;stroke-linecap:round;stroke-linejoin:round;}.cls-16{fill:url(#linear-gradient);}.cls-17{fill:url(#linear-gradient-2);}</style><linearGradient id="linear-gradient" x1="-433.32" y1="206.05" x2="326.35" y2="206.05" gradientUnits="userSpaceOnUse"><stop offset="0" stop-color="#ff0040"/><stop offset="1" stop-color="#2ace27"/></linearGradient><linearGradient id="linear-gradient-2" x1="-494.1" y1="206.05" x2="341.54" y2="206.05" xlink:href="#linear-gradient"/></defs><g id="Layer_2" data-name="Layer 2"><g id="VarietiesOutline"><rect class="cls-1" x="0.38" y="0.38" width="437.6" height="291.27" rx="8"/><rect class="cls-2" x="0.38" y="0.38" width="437.6" height="291.27" rx="8"/><g class="cls-3"><text class="cls-4" transform="translate(24.58 38.99) scale(0.98 1)"><tspan class="cls-5">V</tspan><tspan class="cls-6" x="12.07" y="0">ARIET</tspan><tspan class="cls-7" x="69.46" y="0">Y</tspan><tspan x="80.2" y="0">: </tspan></text><text class="cls-8" transform="translate(126.75 38.99) scale(0.98 1)">NALBARI<tspan class="cls-9" x="85.35" y="0">Y</tspan><tspan x="95.68" y="0">A</tspan></text><text class="cls-4" transform="translate(24.58 72.28) scale(0.98 1)">POPULARIT<tspan class="cls-7" x="111.73" y="0">Y</tspan><tspan x="122.47" y="0">:</tspan></text><text class="cls-10" transform="translate(163.78 72.28) scale(0.98 1)"><tspan xml:space="preserve"> 3.77%</tspan></text></g><text class="cls-11" transform="translate(373.06 251.65) scale(0.98 1)">N/A</text><text class="cls-11" transform="translate(85.88 171.36) scale(0.98 1)">40%</text><text class="cls-11" transform="translate(372.92 171.36) scale(0.98 1)">16%</text><text class="cls-11" transform="translate(245.41 171.36) scale(0.98 1)">44%</text><text class="cls-11" transform="translate(67.69 251.65) scale(0.98 1)">somewhat <tspan x="12.76" y="16.53">p</tspan><tspan class="cls-12" x="21.18" y="16.53">r</tspan><tspan x="25.51" y="16.53">oud</tspan></text><text class="cls-11" transform="translate(225.72 251.65) scale(0.98 1)">very p<tspan class="cls-12" x="36.99" y="0">r</tspan><tspan x="41.33" y="0">oud</tspan></text><text class="cls-13" transform="translate(141.08 135.13) scale(0.98 1)">LEVEL OF PRIDE</text><line class="cls-14" x1="83.55" y1="91.47" x2="355.24" y2="91.47"/><rect class="cls-15" x="355.09" y="190.19" width="60.77" height="31.71"/><rect class="cls-16" x="22.48" y="190.19" width="151.93" height="31.7"/><rect class="cls-17" x="174.41" y="190.19" width="167.13" height="31.7"/><rect class="cls-18" x="174.41" y="190.19" width="167.13" height="31.7"/><rect class="cls-18" x="22.48" y="190.19" width="151.93" height="31.7"/></g></g></svg>