<svg xmlns="http://www.w3.org/2000/svg" xmlns:xlink="http://www.w3.org/1999/xlink" viewBox="0 0 438.35 292.02"><defs><style>.cls-1{fill:#191919;}.cls-12,.cls-17,.cls-18,.cls-2{fill:none;}.cls-12,.cls-13,.cls-17,.cls-18,.cls-2{stroke:#fff;}.cls-12,.cls-17,.cls-2{stroke-miterlimit:1.18;}.cls-2{stroke-width:0.75px;}.cls-10,.cls-11,.cls-3,.cls-4,.cls-5,.cls-6,.cls-7,.cls-8,.cls-9{isolation:isolate;}.cls-4,.cls-5,.cls-6,.cls-7,.cls-8,.cls-9{font-size:20.66px;}.cls-10,.cls-11,.cls-4,.cls-5,.cls-6,.cls-9{fill:#fff;}.cls-4,.cls-5,.cls-6{font-family:Avenir-Medium, Avenir;font-weight:500;}.cls-4{letter-spacing:-0.05em;}.cls-6{letter-spacing:-0.09em;}.cls-7,.cls-8{fill:#fb9a99;}.cls-10,.cls-11,.cls-7,.cls-8,.cls-9{font-family:Avenir-Light, Avenir;font-weight:300;}.cls-8{letter-spacing:-0.07em;}.cls-10,.cls-11{font-size:13.77px;}.cls-11{letter-spacing:-0.02em;}.cls-12{stroke-width:0.25px;}.cls-13{fill:#808285;}.cls-13,.cls-18{stroke-linecap:round;stroke-linejoin:round;}.cls-14{fill:url(#linear-gradient);}.cls-15{fill:url(#linear-gradient-2);}.cls-16{fill:url(#linear-gradient-3);}</style><linearGradient id="linear-gradient" x1="-178.85" y1="87.95" x2="324.45" y2="87.95" gradientTransform="matrix(1, 0, 0, -1, 0, 293.99)" gradientUnits="userSpaceOnUse"><stop offset="0" stop-color="#ff0040"/><stop offset="1" stop-color="#2ace27"/></linearGradient><linearGradient id="linear-gradient-2" x1="-332.66" y1="87.95" x2="427" y2="87.95" xlink:href="#linear-gradient"/><linearGradient id="linear-gradient-3" x1="20.59" y1="87.95" x2="338.69" y2="87.95" xlink:href="#linear-gradient"/></defs><g id="Layer_2" data-name="Layer 2"><g id="Layer_1-2" data-name="Layer 1"><g id="Layer_2-2" data-name="Layer 2"><g id="VarietiesOutline"><rect class="cls-1" x="0.38" y="0.38" width="437.6" height="291.27" rx="8"/><rect class="cls-2" x="0.38" y="0.38" width="437.6" height="291.27" rx="8"/><g class="cls-3"><text class="cls-4" transform="translate(24.58 38.99) scale(0.98 1)">V</text><text class="cls-5" transform="translate(36.4 38.99) scale(0.98 1)">ARIET</text><text class="cls-6" transform="translate(92.65 38.99) scale(0.98 1)">Y</text><text class="cls-5" transform="translate(103.17 38.99) scale(0.98 1)">:</text></g><g class="cls-3"><text class="cls-7" transform="translate(126.75 38.99) scale(0.98 1)">NON-S</text><text class="cls-8" transform="translate(193.13 38.99) scale(0.98 1)">T</text><text class="cls-7" transform="translate(203.38 38.99) scale(0.98 1)">ANDARD</text></g><g class="cls-3"><text class="cls-5" transform="translate(24.58 72.28) scale(0.98 1)">POPULARIT</text><text class="cls-6" transform="translate(134.07 72.28) scale(0.98 1)">Y</text><text class="cls-5" transform="translate(144.6 72.28) scale(0.98 1)">:</text></g><g class="cls-3"><text class="cls-9" transform="translate(163.78 72.28) scale(0.98 1)"><tspan xml:space="preserve"> 7.54%</tspan></text></g><text class="cls-10" transform="translate(373.06 251.64) scale(0.98 1)">N/A</text><text class="cls-10" transform="translate(54.95 171.35) scale(0.98 1)">26.5%</text><text class="cls-10" transform="translate(364.11 171.35) scale(0.98 1)">16.75%</text><text class="cls-10" transform="translate(51.86 251.64) scale(0.98 1)">neutral</text><text class="cls-10" transform="translate(285.51 171.35) scale(0.98 1)">16.75%</text><text class="cls-10" transform="translate(186.58 171.29) scale(0.98 1)">40%</text><g class="cls-3"><text class="cls-10" transform="translate(168.39 251.14) scale(0.98 1)">somewhat </text><text class="cls-10" transform="translate(180.89 267.68) scale(0.98 1)">p</text><text class="cls-11" transform="translate(189.14 267.68) scale(0.98 1)">r</text><text class="cls-10" transform="translate(193.39 267.68) scale(0.98 1)">oud</text></g><g class="cls-3"><text class="cls-10" transform="translate(274.63 251.64) scale(0.98 1)">very p</text><text class="cls-11" transform="translate(310.88 251.64) scale(0.98 1)">r</text><text class="cls-10" transform="translate(315.13 251.64) scale(0.98 1)">oud</text></g><text class="cls-5" transform="translate(141.08 135.12) scale(0.98 1)">LEVEL OF PRIDE</text><line class="cls-12" x1="83.55" y1="91.47" x2="355.23" y2="91.47"/><rect class="cls-13" x="353.67" y="190.19" width="63.62" height="31.7"/><rect class="cls-14" x="22.47" y="190.19" width="100.66" height="31.7"/><rect class="cls-15" x="123.13" y="190.19" width="151.93" height="31.7"/><rect class="cls-16" x="275.07" y="190.19" width="63.62" height="31.7"/><rect class="cls-17" x="123.13" y="190.19" width="151.93" height="31.7"/><rect class="cls-18" x="275.07" y="190.19" width="63.62" height="31.7"/><rect class="cls-17" x="22.47" y="190.19" width="100.66" height="31.7"/></g></g></g></g></svg>