<svg xmlns="http://www.w3.org/2000/svg" xmlns:xlink="http://www.w3.org/1999/xlink" width="438.35" height="292.02" viewBox="0 0 438.35 292.02"><defs><style>.cls-1{fill:#191919;}.cls-16,.cls-19,.cls-2{fill:none;}.cls-12,.cls-16,.cls-19,.cls-2{stroke:#fff;}.cls-16,.cls-2{stroke-miterlimit:1.18;}.cls-2{stroke-width:0.75px;}.cls-11,.cls-3,.cls-4,.cls-8{isolation:isolate;}.cls-11,.cls-15,.cls-4,.cls-8{font-size:20.66px;}.cls-11,.cls-13,.cls-15,.cls-4{fill:#fff;}.cls-15,.cls-4{font-family:Avenir-Medium, Avenir;font-weight:500;}.cls-5{letter-spacing:-0.05em;}.cls-6{letter-spacing:0em;}.cls-7{letter-spacing:-0.09em;}.cls-8{fill:#9bff00;}.cls-11,.cls-13,.cls-8{font-family:Avenir-Light, Avenir;font-weight:300;}.cls-9{letter-spacing:0.01em;}.cls-10{letter-spacing:-0.07em;}.cls-12{fill:#808285;}.cls-12,.cls-19{stroke-linecap:round;stroke-linejoin:round;}.cls-13{font-size:13.77px;}.cls-14{letter-spacing:-0.02em;}.cls-16{stroke-width:0.25px;}.cls-17{fill:url(#linear-gradient);}.cls-18{fill:url(#linear-gradient-3);}</style><linearGradient id="linear-gradient" x1="-293.94" y1="206.3" x2="478.1" y2="206.3" gradientUnits="userSpaceOnUse"><stop offset="0" stop-color="#ff0040"/><stop offset="1" stop-color="#2ace27"/></linearGradient><linearGradient id="linear-gradient-3" x1="169.28" y1="206.3" x2="362.29" y2="206.3" xlink:href="#linear-gradient"/></defs><g id="Layer_2" data-name="Layer 2"><g id="VarietiesOutline"><rect class="cls-1" x="0.38" y="0.38" width="437.6" height="291.27" rx="8"/><rect class="cls-2" x="0.38" y="0.38" width="437.6" height="291.27" rx="8"/><g class="cls-3"><text class="cls-4" transform="translate(24.58 38.99) scale(0.98 1)"><tspan class="cls-5">V</tspan><tspan class="cls-6" x="12.07" y="0">ARIET</tspan><tspan class="cls-7" x="69.46" y="0">Y</tspan><tspan x="80.2" y="0">: </tspan></text><text class="cls-8" transform="translate(126.75 38.99) scale(0.98 1)">SA<tspan class="cls-9" x="25.64" y="0">R</tspan><tspan x="38.01" y="0">THEBARI</tspan><tspan class="cls-10" x="121.83" y="0">Y</tspan><tspan x="132.16" y="0">A</tspan></text><text class="cls-4" transform="translate(24.58 72.28) scale(0.98 1)">POPULARIT<tspan class="cls-7" x="111.73" y="0">Y</tspan><tspan x="122.47" y="0">:</tspan></text><text class="cls-11" transform="translate(163.78 72.28) scale(0.98 1)">1.88%</text></g><rect class="cls-12" x="379.52" y="190.19" width="38.6" height="32.22"/><text class="cls-13" transform="translate(71.13 251.65) scale(0.98 1)">neutral</text><text class="cls-13" transform="translate(79.51 171.36) scale(0.98 1)">40%</text><text class="cls-13" transform="translate(233.92 171.36) scale(0.98 1)">40%</text><text class="cls-13" transform="translate(330.43 171.36) scale(0.98 1)">10%</text><text class="cls-13" transform="translate(386.25 171.36) scale(0.98 1)">10%</text><text class="cls-13" transform="translate(215.73 251.65) scale(0.98 1)">somewhat <tspan x="12.76" y="16.53">p</tspan><tspan class="cls-14" x="21.18" y="16.53">r</tspan><tspan x="25.51" y="16.53">oud</tspan></text><text class="cls-13" transform="translate(330.7 251.4) scale(0.98 1)">very <tspan x="-6" y="16.53">p</tspan><tspan class="cls-14" x="2.41" y="16.53">r</tspan><tspan x="6.75" y="16.53">oud</tspan></text><text class="cls-13" transform="translate(386.4 254.71) scale(0.98 1)">N/A</text><text class="cls-15" transform="translate(141.08 135.13) scale(0.98 1)">LEVEL OF PRIDE</text><line class="cls-16" x1="83.55" y1="91.47" x2="355.24" y2="91.47"/><rect class="cls-17" x="14.87" y="190.19" width="154.41" height="32.22"/><rect class="cls-17" x="169.28" y="190.19" width="154.41" height="32.22"/><rect class="cls-18" x="323.69" y="190.19" width="38.6" height="32.22"/><rect class="cls-19" x="14.87" y="190.19" width="154.41" height="32.22"/><rect class="cls-19" x="169.28" y="190.19" width="154.41" height="32.22"/><rect class="cls-19" x="323.69" y="190.19" width="38.6" height="32.22"/></g></g></svg>