<svg xmlns="http://www.w3.org/2000/svg" xmlns:xlink="http://www.w3.org/1999/xlink" viewBox="0 0 438.35 292.02"><defs><style>.cls-1{fill:#191919;}.cls-14,.cls-17,.cls-2{fill:none;}.cls-11,.cls-14,.cls-17,.cls-2{stroke:#fff;}.cls-14,.cls-2{stroke-miterlimit:1.18;}.cls-2{stroke-width:0.75px;}.cls-10,.cls-12,.cls-13,.cls-3,.cls-4,.cls-5,.cls-6,.cls-7,.cls-8,.cls-9{isolation:isolate;}.cls-10,.cls-4,.cls-5,.cls-6,.cls-7,.cls-8,.cls-9{font-size:20.66px;}.cls-10,.cls-12,.cls-13,.cls-4,.cls-5,.cls-6{fill:#fff;}.cls-4,.cls-5,.cls-6{font-family:Avenir-Medium, Avenir;font-weight:500;}.cls-4{letter-spacing:-0.05em;}.cls-6{letter-spacing:-0.09em;}.cls-7,.cls-8,.cls-9{fill:#9bff00;}.cls-10,.cls-12,.cls-13,.cls-7,.cls-8,.cls-9{font-family:Avenir-Light, Avenir;font-weight:300;}.cls-8{letter-spacing:0.01em;}.cls-9{letter-spacing:-0.07em;}.cls-11{fill:#808285;}.cls-11,.cls-17{stroke-linecap:round;stroke-linejoin:round;}.cls-12,.cls-13{font-size:13.77px;}.cls-13{letter-spacing:-0.02em;}.cls-14{stroke-width:0.25px;}.cls-15{fill:url(#linear-gradient);}.cls-16{fill:url(#linear-gradient-3);}</style><linearGradient id="linear-gradient" x1="-293.95" y1="87.69" x2="478.09" y2="87.69" gradientTransform="matrix(1, 0, 0, -1, 0, 293.99)" gradientUnits="userSpaceOnUse"><stop offset="0" stop-color="#ff0040"/><stop offset="1" stop-color="#2ace27"/></linearGradient><linearGradient id="linear-gradient-3" x1="169.28" y1="87.69" x2="362.29" y2="87.69" xlink:href="#linear-gradient"/></defs><g id="Layer_2" data-name="Layer 2"><g id="Layer_1-2" data-name="Layer 1"><g id="Layer_2-2" data-name="Layer 2"><g id="VarietiesOutline"><rect class="cls-1" x="0.38" y="0.38" width="437.6" height="291.27" rx="8"/><rect class="cls-2" x="0.38" y="0.38" width="437.6" height="291.27" rx="8"/><g class="cls-3"><text class="cls-4" transform="translate(24.58 38.99) scale(0.98 1)">V</text><text class="cls-5" transform="translate(36.4 38.99) scale(0.98 1)">ARIET</text><text class="cls-6" transform="translate(92.65 38.99) scale(0.98 1)">Y</text><text class="cls-5" transform="translate(103.17 38.99) scale(0.98 1)">:</text></g><g class="cls-3"><text class="cls-7" transform="translate(126.75 38.99) scale(0.98 1)">SA</text><text class="cls-8" transform="translate(151.87 38.99) scale(0.98 1)">R</text><text class="cls-7" transform="translate(164 38.99) scale(0.98 1)">THEBARI</text><text class="cls-9" transform="translate(246.14 38.99) scale(0.98 1)">Y</text><text class="cls-7" transform="translate(256.26 38.99) scale(0.98 1)">A</text></g><g class="cls-3"><text class="cls-5" transform="translate(24.58 72.28) scale(0.98 1)">POPULARIT</text><text class="cls-6" transform="translate(134.07 72.28) scale(0.98 1)">Y</text><text class="cls-5" transform="translate(144.6 72.28) scale(0.98 1)">:</text></g><text class="cls-10" transform="translate(163.78 72.28) scale(0.98 1)">1.88%</text><rect class="cls-11" x="379.51" y="190.19" width="38.6" height="32.22"/><text class="cls-12" transform="translate(71.13 251.64) scale(0.98 1)">neutral</text><text class="cls-12" transform="translate(79.51 171.35) scale(0.98 1)">40%</text><text class="cls-12" transform="translate(233.92 171.35) scale(0.98 1)">40%</text><text class="cls-12" transform="translate(330.43 171.35) scale(0.98 1)">10%</text><text class="cls-12" transform="translate(386.25 171.35) scale(0.98 1)">10%</text><g class="cls-3"><text class="cls-12" transform="translate(215.73 251.64) scale(0.98 1)">somewhat </text><text class="cls-12" transform="translate(228.23 268.18) scale(0.98 1)">p</text><text class="cls-13" transform="translate(236.48 268.18) scale(0.98 1)">r</text><text class="cls-12" transform="translate(240.72 268.18) scale(0.98 1)">oud</text></g><g class="cls-3"><text class="cls-12" transform="translate(330.7 251.39) scale(0.98 1)">very </text><text class="cls-12" transform="translate(324.82 267.93) scale(0.98 1)">p</text><text class="cls-13" transform="translate(333.06 267.93) scale(0.98 1)">r</text><text class="cls-12" transform="translate(337.31 267.93) scale(0.98 1)">oud</text></g><text class="cls-12" transform="translate(386.4 254.7) scale(0.98 1)">N/A</text><text class="cls-5" transform="translate(141.08 135.12) scale(0.98 1)">LEVEL OF PRIDE</text><line class="cls-14" x1="83.55" y1="91.47" x2="355.23" y2="91.47"/><rect class="cls-15" x="14.86" y="190.19" width="154.41" height="32.22"/><rect class="cls-15" x="169.27" y="190.19" width="154.41" height="32.22"/><rect class="cls-16" x="323.69" y="190.19" width="38.6" height="32.22"/><rect class="cls-17" x="14.86" y="190.19" width="154.41" height="32.22"/><rect class="cls-17" x="169.27" y="190.19" width="154.41" height="32.22"/><rect class="cls-17" x="323.69" y="190.19" width="38.6" height="32.22"/></g></g></g></g></svg>