<svg xmlns="http://www.w3.org/2000/svg" xmlns:xlink="http://www.w3.org/1999/xlink" viewBox="0 0 438.35 292.02"><defs><style>.cls-1{fill:#191919;}.cls-12,.cls-19,.cls-2{fill:none;stroke-miterlimit:1.18;}.cls-12,.cls-13,.cls-19,.cls-2{stroke:#fff;}.cls-2{stroke-width:0.75px;}.cls-10,.cls-11,.cls-3,.cls-4,.cls-5,.cls-6,.cls-7,.cls-8,.cls-9{isolation:isolate;}.cls-4,.cls-5,.cls-6,.cls-7,.cls-8,.cls-9{font-size:18px;}.cls-10,.cls-11,.cls-14,.cls-4,.cls-5,.cls-6,.cls-9{fill:#fff;}.cls-4,.cls-5,.cls-6{font-family:Avenir-Medium, Avenir;font-weight:500;}.cls-4{letter-spacing:-0.05em;}.cls-6{letter-spacing:-0.09em;}.cls-7,.cls-8{fill:#4a5fb8;}.cls-10,.cls-11,.cls-7,.cls-8,.cls-9{font-family:Avenir-Light, Avenir;font-weight:300;}.cls-8{letter-spacing:-0.07em;}.cls-10,.cls-11{font-size:12px;}.cls-11{letter-spacing:-0.02em;}.cls-12{stroke-width:0.25px;}.cls-13{fill:#808285;stroke-linecap:round;stroke-linejoin:round;}.cls-15{fill:url(#linear-gradient);}.cls-16{fill:url(#linear-gradient-2);}.cls-17{fill:url(#linear-gradient-3);}.cls-18{fill:url(#linear-gradient-4);}</style><linearGradient id="linear-gradient" x1="43.81" y1="115.04" x2="60.58" y2="115.04" gradientTransform="matrix(1, 0, 0, -1, 0, 293.99)" gradientUnits="userSpaceOnUse"><stop offset="0" stop-color="#ff0040"/><stop offset="1" stop-color="#2ace27"/></linearGradient><linearGradient id="linear-gradient-2" x1="-7.5" y1="115.04" x2="137.54" y2="115.04" xlink:href="#linear-gradient"/><linearGradient id="linear-gradient-3" x1="-187.72" y1="115.04" x2="257.69" y2="115.04" xlink:href="#linear-gradient"/><linearGradient id="linear-gradient-4" x1="-619.11" y1="115.04" x2="365.53" y2="115.04" xlink:href="#linear-gradient"/></defs><g id="Layer_2" data-name="Layer 2"><g id="Layer_1-2" data-name="Layer 1"><g id="Layer_2-2" data-name="Layer 2"><g id="VarietiesOutline"><rect class="cls-1" x="0.38" y="0.38" width="437.6" height="291.27" rx="8"/><rect class="cls-2" x="0.38" y="0.38" width="437.6" height="291.27" rx="8"/><g class="cls-3"><text class="cls-4" transform="translate(38.09 33.14)">V</text><text class="cls-5" transform="translate(48.6 33.14)">ARIET</text><text class="cls-6" transform="translate(98.61 33.14)">Y</text><text class="cls-5" transform="translate(107.97 33.14)">:</text></g><g class="cls-3"><text class="cls-7" transform="translate(128.59 33.14)">S</text><text class="cls-8" transform="translate(138.6 33.14)">T</text><text class="cls-7" transform="translate(147.71 33.14)">ANDARD</text></g><g class="cls-3"><text class="cls-5" transform="translate(38.09 62.14)">POPULARIT</text><text class="cls-6" transform="translate(135.44 62.14)">Y</text><text class="cls-5" transform="translate(144.79 62.14)">:</text></g><g class="cls-3"><text class="cls-9" transform="translate(161.4 62.14)"><tspan xml:space="preserve"> 60.37%</tspan></text></g><text class="cls-10" transform="translate(67.58 218.41)">neutral</text><text class="cls-10" transform="translate(73.46 148.46)">8.5%</text><text class="cls-10" transform="translate(334.8 148.46)">57.7%</text><text class="cls-10" transform="translate(152.79 148.58)">26.1%</text><g class="cls-3"><text class="cls-10" transform="translate(141.36 218.41)">somewhat </text><text class="cls-10" transform="translate(152.48 232.8)">p</text><text class="cls-11" transform="translate(159.82 232.8)">r</text><text class="cls-10" transform="translate(163.59 232.8)">oud</text></g><g class="cls-3"><text class="cls-10" transform="translate(310.11 218.41)">very p</text><text class="cls-11" transform="translate(342.34 218.41)">r</text><text class="cls-10" transform="translate(346.13 218.41)">oud</text></g><text class="cls-10" transform="translate(388.42 148.46)">7.4%</text><text class="cls-10" transform="translate(389.17 218.41)">N/A</text><text class="cls-5" transform="translate(150 116.9)">LEVEL OF PRIDE</text><line class="cls-12" x1="68" y1="86.66" x2="390.85" y2="86.66"/><rect class="cls-13" x="387.54" y="164.94" width="25.26" height="28.02"/><path class="cls-14" d="M14.68,217a1.5,1.5,0,0,0,.67.67,2,2,0,0,0,.94.24,1.21,1.21,0,0,0,.46-.08.94.94,0,0,0,.4-.2.92.92,0,0,0,.3-.32.68.68,0,0,0,.11-.42.67.67,0,0,0-.25-.58,1.78,1.78,0,0,0-.6-.3c-.24-.07-.51-.13-.79-.19a2.94,2.94,0,0,1-.8-.24,1.47,1.47,0,0,1-.6-.45,1.16,1.16,0,0,1-.25-.81,1.61,1.61,0,0,1,.17-.71,1.74,1.74,0,0,1,.44-.5,2.08,2.08,0,0,1,.6-.29,2.74,2.74,0,0,1,.69-.1,2.78,2.78,0,0,1,1.18.25,1.75,1.75,0,0,1,.77.8l-.65.38a1.42,1.42,0,0,0-.51-.58,1.43,1.43,0,0,0-.79-.2l-.41.06a1.76,1.76,0,0,0-.37.17,1.2,1.2,0,0,0-.28.27.81.81,0,0,0-.12.39.63.63,0,0,0,.25.55,1.82,1.82,0,0,0,.6.28,5.62,5.62,0,0,0,.79.18,3.07,3.07,0,0,1,.8.23,1.56,1.56,0,0,1,.6.47,1.25,1.25,0,0,1,.25.87,1.61,1.61,0,0,1-.16.75,1.44,1.44,0,0,1-.45.53,1.7,1.7,0,0,1-.64.33,2.34,2.34,0,0,1-.75.1,3,3,0,0,1-1.32-.27,2.09,2.09,0,0,1-.92-.85Z"/><path class="cls-14" d="M19.47,215.63a3.3,3.3,0,0,1,.21-1.16,3.23,3.23,0,0,1,.6-.93,2.65,2.65,0,0,1,.93-.6,2.8,2.8,0,0,1,1.17-.22,2.74,2.74,0,0,1,1.17.22,2.61,2.61,0,0,1,1.54,1.53,3.34,3.34,0,0,1,0,2.33,2.6,2.6,0,0,1-.61.92,2.64,2.64,0,0,1-.93.61,3.12,3.12,0,0,1-1.17.22,3.19,3.19,0,0,1-1.17-.22,2.83,2.83,0,0,1-.93-.61,3,3,0,0,1-.6-.92A3.32,3.32,0,0,1,19.47,215.63Zm.72,0a2.73,2.73,0,0,0,.15.89,2.22,2.22,0,0,0,.44.72,2.41,2.41,0,0,0,.69.49,2.38,2.38,0,0,0,.91.18,2.31,2.31,0,0,0,.91-.18,2.37,2.37,0,0,0,.71-.49,2.33,2.33,0,0,0,.44-.72,2.69,2.69,0,0,0,0-1.77A2,2,0,0,0,24,214a2.08,2.08,0,0,0-.71-.5,2.14,2.14,0,0,0-.91-.17,2.2,2.2,0,0,0-.91.17,2.1,2.1,0,0,0-.69.5,2,2,0,0,0-.44.72A2.8,2.8,0,0,0,20.19,215.63Z"/><path class="cls-14" d="M26.92,214.42v-1.56h.71v.61a2.16,2.16,0,0,0,0,.36h0a2.1,2.1,0,0,1,1.9-1.11,1.93,1.93,0,0,1,1,.28,1.5,1.5,0,0,1,.65.91A1.82,1.82,0,0,1,32,213a2.2,2.2,0,0,1,1.09-.29,2.15,2.15,0,0,1,1.06.21,1.58,1.58,0,0,1,.64.53,1.84,1.84,0,0,1,.32.76,3.32,3.32,0,0,1,.09.89v3.3h-.7v-3.26a2.84,2.84,0,0,0-.07-.66,1.4,1.4,0,0,0-.21-.57,1.05,1.05,0,0,0-.41-.4,1.33,1.33,0,0,0-.7-.15,1.55,1.55,0,0,0-.84.19,1.43,1.43,0,0,0-.51.47,2.26,2.26,0,0,0-.26.62,4.3,4.3,0,0,0-.08.64v3.12H30.7v-3.34a2.19,2.19,0,0,0-.28-1.23,1,1,0,0,0-.87-.47,1.78,1.78,0,0,0-.75.14,1.49,1.49,0,0,0-.61.42,2,2,0,0,0-.41.71,3.37,3.37,0,0,0-.15,1v2.77h-.72Z"/><path class="cls-14" d="M42,217.36a2.5,2.5,0,0,1-1,.91,3.39,3.39,0,0,1-1.37.28,3.1,3.1,0,0,1-1.16-.22A2.58,2.58,0,0,1,37,216.8a3.11,3.11,0,0,1-.21-1.17,3.26,3.26,0,0,1,.21-1.16,2.7,2.7,0,0,1,.58-.92,2.54,2.54,0,0,1,.87-.61,2.94,2.94,0,0,1,2.23,0A2.39,2.39,0,0,1,42,214.36a2.56,2.56,0,0,1,.17.94v.51H37.54a2.7,2.7,0,0,0,.09.58,1.94,1.94,0,0,0,.34.69,1.87,1.87,0,0,0,.64.58,2,2,0,0,0,1,.25,2.37,2.37,0,0,0,1.07-.28,1.83,1.83,0,0,0,.79-.72Zm-.57-2.2a1.64,1.64,0,0,0-.14-.69,2.11,2.11,0,0,0-.41-.58,2,2,0,0,0-1.36-.53,2,2,0,0,0-1.62.8,2.59,2.59,0,0,0-.34.61,2.46,2.46,0,0,0-.09.39Z"/><path class="cls-14" d="M43.36,215.24h3v.64h-3Z"/><path class="cls-14" d="M16.22,227.27H17l1.35,4.64h0l1.54-4.64h.68l1.65,4.64h0l1.31-4.64h.72l-1.63,5.53h-.75l-1.65-4.53h0l-1.54,4.53H18Z"/><path class="cls-14" d="M25.45,223.74h.72v4.5h0a2,2,0,0,1,.72-.79,2.09,2.09,0,0,1,1.18-.33,2.14,2.14,0,0,1,1,.21,1.53,1.53,0,0,1,.65.53,1.84,1.84,0,0,1,.32.76,3.32,3.32,0,0,1,.09.89v3.3h-.72v-3.26a2.39,2.39,0,0,0-.06-.66,1.4,1.4,0,0,0-.21-.57,1,1,0,0,0-.42-.4,1.29,1.29,0,0,0-.7-.15,1.78,1.78,0,0,0-.75.14,1.49,1.49,0,0,0-.61.42,2,2,0,0,0-.41.71,3.37,3.37,0,0,0-.15,1v2.77h-.72Z"/><path class="cls-14" d="M36.43,230.47v1.86c0,.16,0,.32.07.47h-.69a6.54,6.54,0,0,1-.06-.89h0a2.09,2.09,0,0,1-.78.78,2.95,2.95,0,0,1-1.87.17,2,2,0,0,1-.63-.28,1.8,1.8,0,0,1-.45-.51,1.57,1.57,0,0,1-.17-.76,1.43,1.43,0,0,1,.32-1,2,2,0,0,1,.8-.56,3.4,3.4,0,0,1,1-.24c.34,0,.66,0,.93,0h.85v-.34a1.19,1.19,0,0,0-.44-1,1.89,1.89,0,0,0-1.12-.31,2.49,2.49,0,0,0-1.69.62l-.42-.49a2.4,2.4,0,0,1,1-.58,3.32,3.32,0,0,1,1.13-.2,2.52,2.52,0,0,1,1.61.47,1.85,1.85,0,0,1,.6,1.53ZM35,230a5.32,5.32,0,0,0-.89.05,3.49,3.49,0,0,0-.77.2,1.87,1.87,0,0,0-.55.38,1,1,0,0,0-.09,1.06,1.18,1.18,0,0,0,.3.33,2.09,2.09,0,0,0,.4.19,2.32,2.32,0,0,0,.46.07,2.63,2.63,0,0,0,1-.17,2.12,2.12,0,0,0,.59-.44,1.76,1.76,0,0,0,.31-.61,4.06,4.06,0,0,0,.08-.69V230Z"/><path class="cls-14" d="M41.06,227.91H39.49v3.61a.7.7,0,0,0,.63.78h.13a1.84,1.84,0,0,0,.41-.05,2.35,2.35,0,0,0,.4-.14l.07.64a2.85,2.85,0,0,1-.48.13,1.84,1.84,0,0,1-.47.06,1.53,1.53,0,0,1-.66-.11,1.08,1.08,0,0,1-.43-.31,1.14,1.14,0,0,1-.25-.44,1.76,1.76,0,0,1-.07-.56v-3.61H37.56v-.64h1.21v-1.61h.72v1.61h1.58Z"/><path class="cls-14" d="M20.78,243.22v-1.56h.72v1h0a1.78,1.78,0,0,1,.71-.78,2,2,0,0,1,1.17-.33,2.15,2.15,0,0,1,1.06.21,1.5,1.5,0,0,1,.64.53,1.73,1.73,0,0,1,.33.76,3.32,3.32,0,0,1,.09.89v3.3h-.72V244a2.5,2.5,0,0,0-.06-.67,1.69,1.69,0,0,0-.2-.57,1.34,1.34,0,0,0-.42-.4,1.48,1.48,0,0,0-.71-.14,1.89,1.89,0,0,0-.75.14,1.53,1.53,0,0,0-.61.41,1.85,1.85,0,0,0-.41.72,2.82,2.82,0,0,0-.15,1v2.77h-.72Z"/><path class="cls-14" d="M27.13,244.44a3.29,3.29,0,0,1,.22-1.17,2.76,2.76,0,0,1,.6-.93,2.61,2.61,0,0,1,.92-.6,2.84,2.84,0,0,1,1.18-.22,2.74,2.74,0,0,1,1.17.22,2.45,2.45,0,0,1,.92.6,2.51,2.51,0,0,1,.61.93,2.9,2.9,0,0,1,.22,1.17,3,3,0,0,1-.22,1.17,2.52,2.52,0,0,1-.61.91,2.6,2.6,0,0,1-.92.61,3.12,3.12,0,0,1-1.17.22,3.21,3.21,0,0,1-1.18-.22,2.74,2.74,0,0,1-1.52-1.52A3.37,3.37,0,0,1,27.13,244.44Zm.72,0a2.71,2.71,0,0,0,.15.88,2.33,2.33,0,0,0,.44.72,2.25,2.25,0,0,0,3.17.05l.05-.05a2,2,0,0,0,.44-.72,2.69,2.69,0,0,0,0-1.77,2,2,0,0,0-.44-.72,2.06,2.06,0,0,0-.7-.49,2.39,2.39,0,0,0-1.82,0,2.27,2.27,0,0,0-.7.49,2.33,2.33,0,0,0-.44.72A2.73,2.73,0,0,0,27.85,244.44Z"/><path class="cls-14" d="M37.29,242.3H35.7v3.62a.82.82,0,0,0,.21.58.78.78,0,0,0,.56.21,2.7,2.7,0,0,0,.41-.06,2.47,2.47,0,0,0,.41-.14l.07.65-.48.13a3.55,3.55,0,0,1-.47.06,1.91,1.91,0,0,1-.66-.11,1.47,1.47,0,0,1-.44-.31,1.18,1.18,0,0,1-.25-.45,2.09,2.09,0,0,1-.08-.55v-3.62h-1.2v-.64H35v-1.6h.72v1.6h1.57Z"/><path class="cls-14" d="M13.39,256.07h.73v1h0a1.86,1.86,0,0,1,.42-.5,2.62,2.62,0,0,1,.54-.35,2.83,2.83,0,0,1,.62-.21,3.58,3.58,0,0,1,.64-.07,3.08,3.08,0,0,1,1.17.22,2.71,2.71,0,0,1,.92.6,2.68,2.68,0,0,1,.61.93A3.39,3.39,0,0,1,19,260a2.64,2.64,0,0,1-.61.92,2.9,2.9,0,0,1-.92.61,3.1,3.1,0,0,1-1.17.2,4.72,4.72,0,0,1-.64,0,3.48,3.48,0,0,1-.62-.21,3.77,3.77,0,0,1-.54-.34,2.23,2.23,0,0,1-.42-.5h0v3.71h-.73Zm.65,2.76a2.44,2.44,0,0,0,.18.89,2.7,2.7,0,0,0,.49.72,2.54,2.54,0,0,0,.74.48,2.06,2.06,0,0,0,.91.18,2,2,0,0,0,.91-.18,2.13,2.13,0,0,0,.7-.48,2.18,2.18,0,0,0,.45-.72,3,3,0,0,0,.13-.89,2.68,2.68,0,0,0-.13-.88,2.14,2.14,0,0,0-2.05-1.38,2,2,0,0,0-.91.18,2.22,2.22,0,0,0-1.23,1.2A2.08,2.08,0,0,0,14,258.83Z"/><path class="cls-14" d="M20.88,257.63v-1.56h.72v.6a2.28,2.28,0,0,0,0,.37,2.52,2.52,0,0,1,.71-.81,1.8,1.8,0,0,1,1.05-.31h.42l-.08.71a.76.76,0,0,0-.27-.05,1.93,1.93,0,0,0-.82.15,1.5,1.5,0,0,0-.56.42,1.64,1.64,0,0,0-.33.61,2.79,2.79,0,0,0-.11.76v3h-.72Z"/><path class="cls-14" d="M24.36,258.83a3,3,0,0,1,.21-1.17,2.83,2.83,0,0,1,.61-.93,2.62,2.62,0,0,1,.92-.6,3.28,3.28,0,0,1,2.35,0,2.92,2.92,0,0,1,.92.6,3.19,3.19,0,0,1,.61.93,3.4,3.4,0,0,1,.21,1.17A3.59,3.59,0,0,1,30,260a2.8,2.8,0,0,1-1.54,1.52,3.28,3.28,0,0,1-2.35,0A2.71,2.71,0,0,1,24.57,260,3.11,3.11,0,0,1,24.36,258.83Zm.71,0a2.73,2.73,0,0,0,.15.89,2.18,2.18,0,0,0,.45.72,2,2,0,0,0,.7.48,2,2,0,0,0,.91.18,2.06,2.06,0,0,0,.91-.18,2,2,0,0,0,1.13-1.2,2.69,2.69,0,0,0,0-1.77,2.22,2.22,0,0,0-.44-.72,2.16,2.16,0,0,0-1.6-.66,2,2,0,0,0-.91.18,1.9,1.9,0,0,0-.7.48,2.18,2.18,0,0,0-.45.72A2.71,2.71,0,0,0,25.07,258.83Z"/><path class="cls-14" d="M36.49,260v1.57h-.72v-1h0a2.1,2.1,0,0,1-.73.78,2.21,2.21,0,0,1-1.18.33,2.45,2.45,0,0,1-1.06-.21,1.75,1.75,0,0,1-.65-.53,2.11,2.11,0,0,1-.31-.76,4.41,4.41,0,0,1-.09-.89v-3.29h.72v3.26a3.66,3.66,0,0,0,.06.65,2,2,0,0,0,.21.57,1.27,1.27,0,0,0,.42.41,1.55,1.55,0,0,0,.7.15,2.08,2.08,0,0,0,.75-.14,1.58,1.58,0,0,0,.62-.43,1.84,1.84,0,0,0,.4-.71,2.82,2.82,0,0,0,.15-1v-2.76h.72Z"/><path class="cls-14" d="M43.31,260.64h0a2.43,2.43,0,0,1-.41.5,3.14,3.14,0,0,1-.55.34,3.48,3.48,0,0,1-.62.21q-.31,0-.63.06a3.33,3.33,0,0,1-1.18-.21A2.71,2.71,0,0,1,38.38,260a3.12,3.12,0,0,1,0-2.35,2.77,2.77,0,0,1,.59-.93,2.82,2.82,0,0,1,.92-.6A3.12,3.12,0,0,1,41.7,256a3,3,0,0,1,.62.2,2.58,2.58,0,0,1,.55.35,2.19,2.19,0,0,1,.42.5h0v-4.5H44v9.08h-.73Zm.07-1.8a2.25,2.25,0,0,0-.67-1.6,2.23,2.23,0,0,0-1.64-.67,2.06,2.06,0,0,0-.91.18,2.08,2.08,0,0,0-.7.48A2,2,0,0,0,39,258a2.41,2.41,0,0,0-.16.88,2.48,2.48,0,0,0,.16.88,2.12,2.12,0,0,0,.43.72,2.45,2.45,0,0,0,.7.49,2.2,2.2,0,0,0,.91.17A2.14,2.14,0,0,0,42,261a2.46,2.46,0,0,0,.73-.49,2.22,2.22,0,0,0,.5-.72,2.29,2.29,0,0,0,.2-.93Z"/><text class="cls-10" transform="translate(18.13 148.41)">0.3%</text><rect class="cls-15" x="47.16" y="164.94" width="3.35" height="28.02"/><rect class="cls-16" x="50.52" y="164.94" width="29.01" height="28.02"/><rect class="cls-17" x="79.52" y="164.94" width="89.08" height="28.02"/><rect class="cls-18" x="168.61" y="164.94" width="196.93" height="28.02"/><rect class="cls-19" x="79.52" y="164.94" width="89.08" height="28.02"/><rect class="cls-19" x="168.61" y="164.94" width="196.93" height="28.02"/><rect class="cls-19" x="50.52" y="164.94" width="29.01" height="28.02"/><rect class="cls-19" x="47.16" y="164.94" width="3.35" height="28.02"/></g></g></g></g></svg>