<svg xmlns="http://www.w3.org/2000/svg" xmlns:xlink="http://www.w3.org/1999/xlink" width="438.35" height="292.02" viewBox="0 0 438.35 292.02"><defs><style>.cls-1{fill:#191919;}.cls-14,.cls-2,.cls-21{fill:none;stroke-miterlimit:1.18;}.cls-14,.cls-15,.cls-2,.cls-21{stroke:#fff;}.cls-2{stroke-width:0.75px;}.cls-10,.cls-3,.cls-4,.cls-7{isolation:isolate;}.cls-10,.cls-13,.cls-4,.cls-7{font-size:18px;}.cls-10,.cls-11,.cls-13,.cls-16,.cls-4{fill:#fff;}.cls-13,.cls-4{font-family:Avenir-Medium, Avenir;font-weight:500;}.cls-5{letter-spacing:-0.05em;}.cls-6{letter-spacing:-0.09em;}.cls-7{fill:#4a5fb8;}.cls-10,.cls-11,.cls-7{font-family:Avenir-Light, Avenir;font-weight:300;}.cls-8{letter-spacing:-0.07em;}.cls-9{letter-spacing:0em;}.cls-11{font-size:12px;}.cls-12{letter-spacing:-0.02em;}.cls-14{stroke-width:0.25px;}.cls-15{fill:#808285;stroke-linecap:round;stroke-linejoin:round;}.cls-17{fill:url(#linear-gradient);}.cls-18{fill:url(#linear-gradient-2);}.cls-19{fill:url(#linear-gradient-3);}.cls-20{fill:url(#linear-gradient-4);}</style><linearGradient id="linear-gradient" x1="43.82" y1="178.95" x2="60.58" y2="178.95" gradientUnits="userSpaceOnUse"><stop offset="0" stop-color="#ff0040"/><stop offset="1" stop-color="#2ace27"/></linearGradient><linearGradient id="linear-gradient-2" x1="-7.5" y1="178.95" x2="137.55" y2="178.95" xlink:href="#linear-gradient"/><linearGradient id="linear-gradient-3" x1="-187.71" y1="178.95" x2="257.69" y2="178.95" xlink:href="#linear-gradient"/><linearGradient id="linear-gradient-4" x1="-619.11" y1="178.95" x2="365.54" y2="178.95" xlink:href="#linear-gradient"/></defs><g id="Layer_2" data-name="Layer 2"><g id="VarietiesOutline"><rect class="cls-1" x="0.38" y="0.38" width="437.6" height="291.27" rx="8"/><rect class="cls-2" x="0.38" y="0.38" width="437.6" height="291.27" rx="8"/><g class="cls-3"><text class="cls-4" transform="translate(38.1 33.14)"><tspan class="cls-5">V</tspan><tspan x="10.51" y="0">ARIET</tspan><tspan class="cls-6" x="60.52" y="0">Y</tspan><tspan x="69.88" y="0">: </tspan></text><text class="cls-7" transform="translate(128.6 33.14)">S<tspan class="cls-8" x="10.01" y="0">T</tspan><tspan x="19.12" y="0">ANDARD</tspan></text><text class="cls-4" transform="translate(38.1 62.14)">POPULARIT<tspan class="cls-6" x="97.34" y="0">Y</tspan><tspan class="cls-9" x="106.7" y="0">:</tspan></text><text class="cls-10" transform="translate(161.4 62.14)"><tspan xml:space="preserve"> 60.37%</tspan></text></g><text class="cls-11" transform="translate(67.59 218.41)">neutral</text><text class="cls-11" transform="translate(73.46 148.46)">8.5%</text><text class="cls-11" transform="translate(334.8 148.46)">57.7%</text><text class="cls-11" transform="translate(152.8 148.59)">26.1%</text><text class="cls-11" transform="translate(141.37 218.41)">somewhat <tspan x="11.12" y="14.4">p</tspan><tspan class="cls-12" x="18.45" y="14.4">r</tspan><tspan x="22.23" y="14.4">oud</tspan></text><text class="cls-11" transform="translate(310.12 218.41)">very p<tspan class="cls-12" x="32.23" y="0">r</tspan><tspan x="36.01" y="0">oud</tspan></text><text class="cls-11" transform="translate(388.43 148.46)">7.4%</text><text class="cls-11" transform="translate(389.18 218.41)">N/A</text><text class="cls-13" transform="translate(150 116.9)">LEVEL OF PRIDE</text><line class="cls-14" x1="68" y1="86.67" x2="390.86" y2="86.67"/><rect class="cls-15" x="387.54" y="164.94" width="25.26" height="28.02"/><path class="cls-16" d="M14.69,217a1.47,1.47,0,0,0,.67.68,2,2,0,0,0,.94.24,1.42,1.42,0,0,0,.45-.08,1.2,1.2,0,0,0,.41-.2,1.14,1.14,0,0,0,.3-.32.82.82,0,0,0,.11-.42.68.68,0,0,0-.25-.58,1.69,1.69,0,0,0-.6-.3c-.24-.07-.51-.13-.79-.19a3.25,3.25,0,0,1-.8-.24,1.49,1.49,0,0,1-.6-.45,1.17,1.17,0,0,1-.25-.81,1.46,1.46,0,0,1,.17-.71,1.52,1.52,0,0,1,.44-.5,1.86,1.86,0,0,1,.6-.29,2.3,2.3,0,0,1,.69-.1,2.7,2.7,0,0,1,1.18.25,1.76,1.76,0,0,1,.77.8l-.65.38a1.39,1.39,0,0,0-.51-.58,1.42,1.42,0,0,0-.79-.2,1.56,1.56,0,0,0-.41.06,1.4,1.4,0,0,0-.37.17.9.9,0,0,0-.28.27.67.67,0,0,0-.12.39.62.62,0,0,0,.25.55,1.86,1.86,0,0,0,.6.28,7.71,7.71,0,0,0,.79.18,2.86,2.86,0,0,1,.8.23,1.54,1.54,0,0,1,.6.47,1.31,1.31,0,0,1,.25.87,1.73,1.73,0,0,1-.16.75,1.54,1.54,0,0,1-.45.53,1.94,1.94,0,0,1-.64.33,2.66,2.66,0,0,1-.75.1,3.15,3.15,0,0,1-1.32-.27,2.1,2.1,0,0,1-.92-.85Z"/><path class="cls-16" d="M19.48,215.64a3.13,3.13,0,0,1,.21-1.17,3,3,0,0,1,.6-.93,2.66,2.66,0,0,1,.93-.6,3,3,0,0,1,1.17-.22,2.94,2.94,0,0,1,1.17.22,2.62,2.62,0,0,1,1.53,1.53,2.94,2.94,0,0,1,.22,1.17,3,3,0,0,1-.22,1.17,2.71,2.71,0,0,1-.6.92,2.84,2.84,0,0,1-.93.61,3.13,3.13,0,0,1-1.17.21,3.2,3.2,0,0,1-1.17-.21,2.84,2.84,0,0,1-.93-.61,3,3,0,0,1-.6-.92A3.2,3.2,0,0,1,19.48,215.64Zm.72,0a2.58,2.58,0,0,0,.15.88,1.89,1.89,0,0,0,.44.72,2.16,2.16,0,0,0,.69.49,2.24,2.24,0,0,0,.91.18,2.21,2.21,0,0,0,.91-.18,2.1,2.1,0,0,0,.7-.49,2,2,0,0,0,.44-.72,2.58,2.58,0,0,0,.15-.88,2.54,2.54,0,0,0-.15-.88A2,2,0,0,0,24,214a2,2,0,0,0-.7-.49,2.21,2.21,0,0,0-.91-.18,2.24,2.24,0,0,0-.91.18,2,2,0,0,0-.69.49,1.89,1.89,0,0,0-.44.72A2.54,2.54,0,0,0,20.2,215.64Z"/><path class="cls-16" d="M26.92,214.43c0-.11,0-.23,0-.38s0-.3,0-.45,0-.3,0-.43,0-.23,0-.3h.72c0,.2,0,.4,0,.6a1.81,1.81,0,0,0,0,.37h0a1.93,1.93,0,0,1,.72-.79,2.12,2.12,0,0,1,1.18-.33,2,2,0,0,1,1,.28,1.6,1.6,0,0,1,.65.92A1.82,1.82,0,0,1,32,213a2.26,2.26,0,0,1,1.1-.29,2.35,2.35,0,0,1,1.06.21,1.68,1.68,0,0,1,.64.53,2.08,2.08,0,0,1,.32.76,4.41,4.41,0,0,1,.09.89v3.3H34.5v-3.26a3.52,3.52,0,0,0-.06-.66,1.77,1.77,0,0,0-.21-.57,1.08,1.08,0,0,0-.42-.4,1.43,1.43,0,0,0-.7-.15,1.59,1.59,0,0,0-.83.19,1.45,1.45,0,0,0-.51.47,2,2,0,0,0-.26.62,3,3,0,0,0-.08.64v3.12h-.72v-3.34a2.33,2.33,0,0,0-.28-1.23,1,1,0,0,0-.87-.47,2,2,0,0,0-.75.14,1.52,1.52,0,0,0-.61.42,1.9,1.9,0,0,0-.41.71,3,3,0,0,0-.15,1v2.77h-.72Z"/><path class="cls-16" d="M42,217.37a2.51,2.51,0,0,1-1,.91,3.37,3.37,0,0,1-1.36.27,3.07,3.07,0,0,1-1.16-.21A2.64,2.64,0,0,1,37,216.81a3.21,3.21,0,0,1-.2-1.18,3.36,3.36,0,0,1,.2-1.16,2.78,2.78,0,0,1,.58-.91,2.82,2.82,0,0,1,.87-.62,2.9,2.9,0,0,1,1.12-.22,2.8,2.8,0,0,1,1.12.22,2.5,2.5,0,0,1,.82.59,2.47,2.47,0,0,1,.5.84,2.79,2.79,0,0,1,.17.94v.51H37.55a2.49,2.49,0,0,0,.09.58,2,2,0,0,0,.33.69,2.12,2.12,0,0,0,.64.58,2,2,0,0,0,1,.24,2.3,2.3,0,0,0,1.07-.27,1.9,1.9,0,0,0,.79-.72Zm-.56-2.2a1.82,1.82,0,0,0-.14-.7,2.29,2.29,0,0,0-.41-.57,2,2,0,0,0-1.37-.53,1.81,1.81,0,0,0-1,.24,2.09,2.09,0,0,0-.62.55,2.45,2.45,0,0,0-.33.61,1.65,1.65,0,0,0-.09.4Z"/><path class="cls-16" d="M43.37,215.24h3v.65h-3Z"/><path class="cls-16" d="M16.23,227.27H17l1.35,4.64h0l1.55-4.64h.68l1.65,4.64h0l1.31-4.64h.72l-1.63,5.54h-.75l-1.65-4.54h0l-1.55,4.54H18Z"/><path class="cls-16" d="M25.46,223.74h.72v4.5h0a2,2,0,0,1,.72-.79,2.12,2.12,0,0,1,1.18-.33,2.28,2.28,0,0,1,1,.21,1.64,1.64,0,0,1,.65.53,2.08,2.08,0,0,1,.32.76,4.41,4.41,0,0,1,.09.89v3.3h-.72v-3.26a3.52,3.52,0,0,0-.06-.66,1.77,1.77,0,0,0-.21-.57,1.08,1.08,0,0,0-.42-.4,1.43,1.43,0,0,0-.7-.15,2,2,0,0,0-.75.14,1.52,1.52,0,0,0-.61.42,1.9,1.9,0,0,0-.41.71,3,3,0,0,0-.15,1v2.77h-.72Z"/><path class="cls-16" d="M36.44,230.48v.73c0,.22,0,.42,0,.6s0,.36,0,.52a3.93,3.93,0,0,0,.06.48h-.68a6.09,6.09,0,0,1-.07-.9h0a2,2,0,0,1-.78.79,2.36,2.36,0,0,1-1.17.25,2.74,2.74,0,0,1-.7-.09,1.9,1.9,0,0,1-.63-.28,1.84,1.84,0,0,1-.45-.51,1.61,1.61,0,0,1-.17-.76,1.53,1.53,0,0,1,.32-1,2.07,2.07,0,0,1,.8-.56,4.14,4.14,0,0,1,1-.24c.35,0,.67-.05.94-.05h.84v-.34a1.18,1.18,0,0,0-.44-1,1.9,1.9,0,0,0-1.12-.31,2.56,2.56,0,0,0-1.69.62l-.42-.49a2.58,2.58,0,0,1,1-.58,3.59,3.59,0,0,1,1.13-.2,2.51,2.51,0,0,1,1.61.48,1.82,1.82,0,0,1,.6,1.53ZM35,230a6.19,6.19,0,0,0-.88.06,2.89,2.89,0,0,0-.77.2,1.5,1.5,0,0,0-.55.38.92.92,0,0,0-.2.6.94.94,0,0,0,.11.45,1.06,1.06,0,0,0,.3.33,1.34,1.34,0,0,0,.4.19,1.76,1.76,0,0,0,.45.07,2.37,2.37,0,0,0,1-.17,1.66,1.66,0,0,0,.59-.44,1.54,1.54,0,0,0,.31-.61,3.25,3.25,0,0,0,.08-.69V230Z"/><path class="cls-16" d="M41.07,227.91H39.49v3.62a.71.71,0,0,0,.76.78,1.52,1.52,0,0,0,.42-.06,1.9,1.9,0,0,0,.4-.14l.06.65a3.9,3.9,0,0,1-.47.13,2.09,2.09,0,0,1-.47.06,1.69,1.69,0,0,1-.66-.11,1.2,1.2,0,0,1-.44-.31,1.22,1.22,0,0,1-.25-.45,1.93,1.93,0,0,1-.07-.55v-3.62h-1.2v-.64h1.2v-1.6h.72v1.6h1.58Z"/><path class="cls-16" d="M20.78,243.23c0-.11,0-.23,0-.38s0-.3,0-.45,0-.3,0-.43,0-.23,0-.3h.72c0,.2,0,.4,0,.6s0,.31,0,.37h0a1.86,1.86,0,0,1,.72-.79,2.08,2.08,0,0,1,1.17-.33,2.3,2.3,0,0,1,1.06.21,1.6,1.6,0,0,1,.64.53,1.93,1.93,0,0,1,.33.76,4.41,4.41,0,0,1,.09.89v3.3h-.72V244a3.52,3.52,0,0,0-.06-.66,1.77,1.77,0,0,0-.21-.57,1.08,1.08,0,0,0-.42-.4,1.47,1.47,0,0,0-.71-.15,2.12,2.12,0,0,0-.75.14,1.59,1.59,0,0,0-.61.42,2,2,0,0,0-.41.71,3,3,0,0,0-.15,1v2.77h-.72Z"/><path class="cls-16" d="M27.14,244.44a3.13,3.13,0,0,1,.22-1.17,2.66,2.66,0,0,1,.6-.93,2.62,2.62,0,0,1,.92-.6,3.06,3.06,0,0,1,1.18-.22,3,3,0,0,1,1.17.22,2.62,2.62,0,0,1,.92.6,2.69,2.69,0,0,1,.61.93,3.13,3.13,0,0,1,.22,1.17,3.2,3.2,0,0,1-.22,1.17,2.74,2.74,0,0,1-.61.92,2.79,2.79,0,0,1-.92.61,3.2,3.2,0,0,1-1.17.21,3.25,3.25,0,0,1-1.18-.21,2.79,2.79,0,0,1-.92-.61,2.71,2.71,0,0,1-.6-.92A3.2,3.2,0,0,1,27.14,244.44Zm.72,0a2.58,2.58,0,0,0,.15.88,2,2,0,0,0,.44.72,2.24,2.24,0,0,0,3.22,0,2,2,0,0,0,.44-.72,2.58,2.58,0,0,0,.15-.88,2.54,2.54,0,0,0-.15-.88,2,2,0,0,0-.44-.72,2.06,2.06,0,0,0-.7-.49,2.39,2.39,0,0,0-1.82,0,2.06,2.06,0,0,0-.7.49,2,2,0,0,0-.44.72A2.54,2.54,0,0,0,27.86,244.44Z"/><path class="cls-16" d="M37.3,242.31H35.71v3.62a.75.75,0,0,0,.21.57.73.73,0,0,0,.56.21,1.45,1.45,0,0,0,.41-.06,2,2,0,0,0,.41-.14l.06.65a4.49,4.49,0,0,1-.47.13,2.16,2.16,0,0,1-.47.06,1.63,1.63,0,0,1-.66-.11,1.2,1.2,0,0,1-.44-.31,1,1,0,0,1-.25-.45,1.92,1.92,0,0,1-.08-.55v-3.62h-1.2v-.64H35v-1.6h.72v1.6H37.3Z"/><path class="cls-16" d="M13.4,256.07h.73v1h0a1.83,1.83,0,0,1,.42-.5,2.62,2.62,0,0,1,.54-.35,2.8,2.8,0,0,1,.62-.2,2.85,2.85,0,0,1,.64-.07,3,3,0,0,1,1.17.22,2.71,2.71,0,0,1,.92.6,2.69,2.69,0,0,1,.61.93,3.13,3.13,0,0,1,.21,1.17,3.2,3.2,0,0,1-.21,1.17,2.74,2.74,0,0,1-.61.92,2.9,2.9,0,0,1-.92.61,3.2,3.2,0,0,1-1.17.21,3.55,3.55,0,0,1-.64-.06,2.83,2.83,0,0,1-.62-.21,2.57,2.57,0,0,1-.54-.34,1.83,1.83,0,0,1-.42-.5h0v3.71H13.4Zm.65,2.77a2.2,2.2,0,0,0,.18.88,2.29,2.29,0,0,0,.49.72,2.51,2.51,0,0,0,.74.49,2.27,2.27,0,0,0,.91.18,2.24,2.24,0,0,0,.91-.18,2.32,2.32,0,0,0,.7-.49,2.18,2.18,0,0,0,.44-.72,2.84,2.84,0,0,0,.14-.88,2.8,2.8,0,0,0-.14-.88,2.08,2.08,0,0,0-1.14-1.21,2.24,2.24,0,0,0-.91-.18,2.27,2.27,0,0,0-.91.18,2.33,2.33,0,0,0-.74.49,2.29,2.29,0,0,0-.49.72A2.16,2.16,0,0,0,14.05,258.84Z"/><path class="cls-16" d="M20.89,257.63c0-.11,0-.23,0-.38s0-.3,0-.45,0-.3,0-.43,0-.23,0-.3h.72c0,.2,0,.4,0,.6a2.1,2.1,0,0,0,0,.37,2.42,2.42,0,0,1,.71-.81,1.81,1.81,0,0,1,1.05-.31l.21,0,.21,0-.08.71a1,1,0,0,0-.27-.05,2,2,0,0,0-.82.15,1.56,1.56,0,0,0-.56.42,1.64,1.64,0,0,0-.33.61,2.7,2.7,0,0,0-.11.77v3h-.72Z"/><path class="cls-16" d="M24.36,258.84a2.94,2.94,0,0,1,.22-1.17,2.66,2.66,0,0,1,.6-.93,2.53,2.53,0,0,1,.92-.6,3.25,3.25,0,0,1,2.35,0,2.71,2.71,0,0,1,.92.6,2.84,2.84,0,0,1,.61.93,3.13,3.13,0,0,1,.21,1.17A3.2,3.2,0,0,1,30,260a2.78,2.78,0,0,1-1.53,1.53,3.39,3.39,0,0,1-2.35,0A2.72,2.72,0,0,1,24.58,260,3,3,0,0,1,24.36,258.84Zm.72,0a2.58,2.58,0,0,0,.15.88,2,2,0,0,0,.44.72,2.1,2.1,0,0,0,.7.49,2.21,2.21,0,0,0,.91.18,2.24,2.24,0,0,0,.91-.18,2.16,2.16,0,0,0,.69-.49,1.89,1.89,0,0,0,.44-.72,2.58,2.58,0,0,0,.15-.88,2.54,2.54,0,0,0-.15-.88,1.89,1.89,0,0,0-.44-.72,2,2,0,0,0-.69-.49,2.24,2.24,0,0,0-.91-.18,2.21,2.21,0,0,0-.91.18,2,2,0,0,0-.7.49,2,2,0,0,0-.44.72A2.54,2.54,0,0,0,25.08,258.84Z"/><path class="cls-16" d="M36.49,260.05c0,.1,0,.23,0,.38s0,.3,0,.45,0,.29,0,.42,0,.24,0,.31h-.72c0-.21,0-.41,0-.6a2.41,2.41,0,0,0,0-.37h0a2,2,0,0,1-.72.78,2.12,2.12,0,0,1-1.18.33,2.36,2.36,0,0,1-1.06-.2,1.72,1.72,0,0,1-.65-.53,2,2,0,0,1-.31-.77,4.24,4.24,0,0,1-.09-.88v-3.3h.72v3.26a3.49,3.49,0,0,0,.06.65,1.61,1.61,0,0,0,.21.57,1.1,1.1,0,0,0,.42.41,1.43,1.43,0,0,0,.7.15,2,2,0,0,0,.75-.14,1.63,1.63,0,0,0,.62-.42,2.12,2.12,0,0,0,.4-.71,3,3,0,0,0,.15-1v-2.77h.72Z"/><path class="cls-16" d="M43.32,260.64h0a2,2,0,0,1-.42.5,2.4,2.4,0,0,1-.55.34,2.67,2.67,0,0,1-.62.21,3.44,3.44,0,0,1-.63.06,3.22,3.22,0,0,1-1.18-.21A2.72,2.72,0,0,1,38.38,260a3,3,0,0,1-.22-1.17,2.94,2.94,0,0,1,.22-1.17,2.66,2.66,0,0,1,.6-.93,2.53,2.53,0,0,1,.92-.6,3,3,0,0,1,1.18-.22,2.76,2.76,0,0,1,.63.07,2.64,2.64,0,0,1,.62.2,2.44,2.44,0,0,1,.55.35,2,2,0,0,1,.42.5h0v-4.5H44v9.07h-.72Zm.07-1.8a2.16,2.16,0,0,0-.18-.88,2.14,2.14,0,0,0-.49-.72,2.3,2.3,0,0,0-1.64-.67,2.21,2.21,0,0,0-.91.18,2,2,0,0,0-.7.49A2,2,0,0,0,39,258a2.54,2.54,0,0,0-.15.88,2.58,2.58,0,0,0,.15.88,2,2,0,0,0,.44.72,2.1,2.1,0,0,0,.7.49,2.21,2.21,0,0,0,.91.18,2.31,2.31,0,0,0,.91-.18,2.46,2.46,0,0,0,.73-.49,2.14,2.14,0,0,0,.49-.72A2.2,2.2,0,0,0,43.39,258.84Z"/><text class="cls-11" transform="translate(18.13 148.42)">0.3%</text><rect class="cls-17" x="47.17" y="164.94" width="3.35" height="28.02"/><rect class="cls-18" x="50.52" y="164.94" width="29.01" height="28.02"/><rect class="cls-19" x="79.53" y="164.94" width="89.08" height="28.02"/><rect class="cls-20" x="168.61" y="164.94" width="196.93" height="28.02"/><rect class="cls-21" x="79.53" y="164.94" width="89.08" height="28.02"/><rect class="cls-21" x="168.61" y="164.94" width="196.93" height="28.02"/><rect class="cls-21" x="50.52" y="164.94" width="29.01" height="28.02"/><rect class="cls-21" x="47.17" y="164.94" width="3.35" height="28.02"/></g></g></svg>