<svg xmlns="http://www.w3.org/2000/svg" xmlns:xlink="http://www.w3.org/1999/xlink" viewBox="0 0 438.35 292.02"><defs><style>.cls-1{fill:#191919;}.cls-12,.cls-16,.cls-2{fill:none;stroke:#fff;}.cls-12,.cls-2{stroke-miterlimit:1.18;}.cls-2{stroke-width:0.75px;}.cls-10,.cls-11,.cls-3,.cls-4,.cls-5,.cls-6,.cls-7,.cls-8,.cls-9{isolation:isolate;}.cls-4,.cls-5,.cls-6,.cls-7,.cls-8,.cls-9{font-size:20.66px;}.cls-10,.cls-11,.cls-4,.cls-5,.cls-6,.cls-9{fill:#fff;}.cls-4,.cls-5,.cls-6{font-family:Avenir-Medium, Avenir;font-weight:500;}.cls-4,.cls-7{letter-spacing:-0.05em;}.cls-6{letter-spacing:-0.09em;}.cls-7,.cls-8{fill:#54ffff;}.cls-10,.cls-11,.cls-7,.cls-8,.cls-9{font-family:Avenir-Light, Avenir;font-weight:300;}.cls-10,.cls-11{font-size:13.77px;}.cls-11{letter-spacing:-0.02em;}.cls-12{stroke-width:0.25px;}.cls-13{fill:url(#linear-gradient);}.cls-14{fill:url(#linear-gradient-2);}.cls-15{fill:url(#linear-gradient-3);}.cls-16{stroke-linecap:round;stroke-linejoin:round;}</style><linearGradient id="linear-gradient" x1="-244.06" y1="87.69" x2="431.5" y2="87.69" gradientTransform="matrix(1, 0, 0, -1, 0, 293.99)" gradientUnits="userSpaceOnUse"><stop offset="0" stop-color="#ff0040"/><stop offset="1" stop-color="#2ace27"/></linearGradient><linearGradient id="linear-gradient-2" x1="-359.86" y1="87.69" x2="508.7" y2="87.69" xlink:href="#linear-gradient"/><linearGradient id="linear-gradient-3" x1="26.19" y1="87.69" x2="412.18" y2="87.69" xlink:href="#linear-gradient"/></defs><g id="Layer_2" data-name="Layer 2"><g id="Layer_1-2" data-name="Layer 1"><g id="Layer_2-2" data-name="Layer 2"><g id="VarietiesOutline"><rect class="cls-1" x="0.38" y="0.38" width="437.6" height="291.27" rx="8"/><rect class="cls-2" x="0.38" y="0.38" width="437.6" height="291.27" rx="8"/><g class="cls-3"><text class="cls-4" transform="translate(24.59 38.99) scale(0.98 1)">V</text><text class="cls-5" transform="translate(36.41 38.99) scale(0.98 1)">ARIET</text><text class="cls-6" transform="translate(92.66 38.99) scale(0.98 1)">Y</text><text class="cls-5" transform="translate(103.18 38.99) scale(0.98 1)">:</text></g><g class="cls-3"><text class="cls-7" transform="translate(126.75 38.99) scale(0.98 1)">V</text><text class="cls-8" transform="translate(137.64 38.99) scale(0.98 1)">ARIOUS</text></g><g class="cls-3"><text class="cls-5" transform="translate(24.59 72.28) scale(0.98 1)">POPULARIT</text><text class="cls-6" transform="translate(134.08 72.28) scale(0.98 1)">Y</text><text class="cls-5" transform="translate(144.61 72.28) scale(0.98 1)">:</text></g><g class="cls-3"><text class="cls-9" transform="translate(163.79 72.28) scale(0.98 1)"><tspan xml:space="preserve"> 3.77%</tspan></text></g><text class="cls-10" transform="translate(72.78 251.64) scale(0.98 1)">neutral</text><text class="cls-10" transform="translate(81.16 171.35) scale(0.98 1)">35%</text><text class="cls-10" transform="translate(361.03 171.35) scale(0.98 1)">20%</text><text class="cls-10" transform="translate(238.32 171.35) scale(0.98 1)">45%</text><g class="cls-3"><text class="cls-10" transform="translate(220.13 251.64) scale(0.98 1)">somewhat </text><text class="cls-10" transform="translate(232.63 268.18) scale(0.98 1)">p</text><text class="cls-11" transform="translate(240.88 268.18) scale(0.98 1)">r</text><text class="cls-10" transform="translate(245.13 268.18) scale(0.98 1)">oud</text></g><g class="cls-3"><text class="cls-10" transform="translate(361.3 251.64) scale(0.98 1)">very </text><text class="cls-10" transform="translate(355.42 268.18) scale(0.98 1)">p</text><text class="cls-11" transform="translate(363.66 268.18) scale(0.98 1)">r</text><text class="cls-10" transform="translate(367.91 268.18) scale(0.98 1)">oud</text></g><text class="cls-5" transform="translate(141.09 135.12) scale(0.98 1)">LEVEL OF PRIDE</text><line class="cls-12" x1="83.56" y1="91.47" x2="355.24" y2="91.47"/><rect class="cls-13" x="26.16" y="190.19" width="135.11" height="32.22"/><rect class="cls-14" x="161.28" y="190.19" width="173.71" height="32.22"/><rect class="cls-15" x="334.99" y="190.19" width="77.2" height="32.22"/><rect class="cls-16" x="161.28" y="190.19" width="173.71" height="32.22"/><rect class="cls-16" x="334.99" y="190.19" width="77.2" height="32.22"/><rect class="cls-16" x="26.16" y="190.19" width="135.11" height="32.22"/></g></g></g></g></svg>