<svg xmlns="http://www.w3.org/2000/svg" width="186" height="183.58" viewBox="0 0 186 183.58"><defs><style>.cls-1{fill:#191919;stroke:#fff;stroke-miterlimit:1.18;stroke-width:0.51px;fill-rule:evenodd;}</style></defs><g id="Layer_2" data-name="Layer 2"><g id="Layer_1-2" data-name="Layer 1"><path id="Cachar" class="cls-1" d="M28.19,5.06,39,7.62h0L28.19,5.06h0a5.24,5.24,0,0,1-2.1.23c-3.59-.16-5.93.26-8.35,3S16.45,18,11.82,18.82c-2,.35-4.18-1.18-5.82.75A76.22,76.22,0,0,0,1,26H1c2.18,5.32-4.68,8,2.91,11.85,7.32,1.29,3.08,2.06,3.85,7,1.61,10.54,6.49-.75,10.13-.75,0,4.32-3,8-2.25,13,.33,2.21.62,3.68.39,4.63h0l5.42,1.42c2.11.45,6.6,1.87,8.75,1.61,3.4-.42,4.75-1.48,7.83-2.2,2.06-.49,4.44-1.23,6.54-.37h0l5.7,5.89c-.4,4.55.45,4.76,3.9,6.6,2.43,1.3,6.5.58,4.36,4.61-1.17,2.19-1.85,5.1-1.07,7.45,1.19,3.62,0,4.87,0,8.25,0,3-.56,2.62.62,5.85.79,2.16-2.59,8.26-.37,10.08s0,3.73-.59,6.09c-.22.83-2.15,6.54.79,5.29.76-.32,2.68-2.6,5.12-3.4,2.84-.93,4.24,1.45,1.55,3.07-1.06.65-2.11,2.82-3,3.84.71,4.16.52,7.23,5.22,8.4.81.2,6.86-1.51,9.38-1.51,6.71,0,10.23.9,7.54,8.25-.77,2.1-5.26,7.61-6.77,10.43h0c2.18,8.76,9.53,19.14,12.86,28.2,4.71,12.84,17.12-12,22.61-3.57,2.34,3.59,3.9,2.71,7.79,2.35,2.71-.26,8.58,1.6,10-1.7h0c3.15-7.06,2.31-1.07,6.1-4.13,1.17-.94.44-4.18.1-5.36-1.65-5.66,3.1-4.41,3.1-6.49,0-5.35-5.53-5.37-2.07-11.28,1.7-1.7,7.78-8.93,5.91-10.81-7.34-7.36,5.17-2.53,7.89-5.26,0-3.11-4.45-6.06-6.48-7.8-.54-4.38,3.35-6.53,5.16-10.15,2.46-4.93-2.41-4.66-3.28-8.75a9.39,9.39,0,0,1,1.31-7c2.34-3.19,1.7-5.83,2.35-9.4.37-2.08,3.54-12.28,5.25-13,2.66-1.07,10.12,15.12,12.95,5.17,1.93-7.69.26-11.71,6.57-17.76,4.15-4,8.74-13.34,10.14-18.9a12.57,12.57,0,0,0,.37-3.79h0c-.16-.13-1.05-.67-1.22-.78-5.06-3.26-5.19-4.68-11.3-6.7a24.43,24.43,0,0,0-5.38-.78c-2.41-.23-8.26,0-10-.37-6.87-1.42-10-2-15.26-6.8-2-1.81-1.78-2.32-4.47-4.4a7.07,7.07,0,0,1-1.7-3.41c-.84-2.6.28-4.84.34-6.77.09-2.73.09-3.77-2.67-4.2-3.39-.52-8.59,3.76-11.76,5-4.22,1.69-5.46,4.21-9.59,1.44-1.74-1.18-4.35-.35-6.12.56-4.91,2.54-10.78,6.17-14.53-.46-.6-1.06-4.09-2.56-5.28-2.48-2.2.13-3.89-3.38-6.24-4.32-4.88-1.95-3.05-4.84-5-6.83-1.15-1.15-3.87.58-4.68,1.7C68,6.19,67.58,5.81,62.73,5.41c-6-.49-8-2.06-13.8,1.35-4,2.38-5.87,2.26-10.45.73L28.19,5.06Z"/></g></g></svg>