<svg xmlns="http://www.w3.org/2000/svg" width="199.41" height="103.72" viewBox="0 0 199.41 103.72"><defs><style>.cls-1{fill:#191919;stroke:#fff;stroke-miterlimit:1.18;stroke-width:0.51px;fill-rule:evenodd;}</style></defs><g id="Layer_2" data-name="Layer 2"><g id="Layer_1-2" data-name="Layer 1"><path id="Majuli" class="cls-1" d="M.21,93.36C2.54,91.6,4.69,90,7.49,89.14s3.56-1.45,5.79.92c1.15,1.23,3.47.57,4.52-1A12.49,12.49,0,0,1,19.85,87l3.57-4.7h0a15.1,15.1,0,0,1,3.23,3.08c1.46,1.52,6,.86,7.43-.65,2.12-2.2,4.6-4.47,7.69-5,2.83-.45,5.86-3.63,7-6.12.58-1.26,3.32-3.45,3.87-5.72,1-4,7.73-5.76,11.27-5.76,4.73,0,6.37-.53,10.6-2.79s4.92-7.84,11-7.84a29.81,29.81,0,0,1,4.1.08c4.56.27,5.93.4,9.79-1.86,3-1.75,4.48-4.33,8.24-4.51,1.8-.09,4.84-3,4.76-5.09-.1-2.94,2.3-3,4.74-4,1.33-.53,3.13-.74,4-2.54,1-1.95-.18-2.71,2.34-6.2,1.4-1.94,5.56-5.85,8.15-4.55,4.27,2.14,6.68,3.41,11.36,1.19,1.8-.85,3.25-.76,5.69-2,5.05-2.64,11.84,1.85,15.26-3.69,2.82-4.57,3.58,2.14,7.36-3.4,1.15-1.7,3.62-2,5.48-1.28,4.66,1.74,6.88-2.73,8.47-6.21a14,14,0,0,1,5.12-4.91l5.1-2.3h0l3.58,7.06h0c-2.14,5.64-1.46,5.24-6.36,8.42-2.93,1.9-1.66,4.92-4.08,8.42-1.49,2.15-1.29,2.87-3.63,5-1.46,1.3-3.09,2.42-4.13,4.08-2.86,4.6-3.06,2.7-6.45,5.57-2,1.69-2.34,1.83-3.61,4.19-.6,1.11-2.84,2.64-4,3.22-2.8,1.45-3.61,3.83-4.28,4.26l-3.24,4.91h0l-4.88,3.3c-1.44,1.44-2.4,2.51-3.74,4-2.58,2.84-6.64,6.6-10.46,7.52-5.77,1.39-8.57,2.87-14.89,3.46l-1.08.2c-11.15,1.51-14.19-1.66-25.13,5.13-6.28,3.91-7.54,5.36-14.88,8-6.48,2.31-6.61,1.73-13,1.52h0l-2.63-1.25c-1.39-.12-6.12,5.89-7,7.31a28.1,28.1,0,0,1-3.52,3.74c-3.08,3.09-4.05,3.57-8,5.14-1.74.7-6-1.62-7.23-2.86-2.88-2.89-5.72-3.93-8.36-6.44C33.58,93,30,92.59,28.94,93,26,94.1,17.6,98.08,14.81,96.24c-2.42-1.59-5.57.74-8.13,1-3.61.3-4.55-1.27-6.47-3.83Z"/></g></g></svg>