<svg xmlns="http://www.w3.org/2000/svg" width="82.56" height="146.67" viewBox="0 0 82.56 146.67"><defs><style>.cls-1{fill:#191919;stroke:#fff;stroke-miterlimit:1.18;stroke-width:0.51px;fill-rule:evenodd;}</style></defs><g id="Layer_2" data-name="Layer 2"><g id="Layer_1-2" data-name="Layer 1"><path id="South_Salmara_Mankachar" data-name="South Salmara Mankachar" class="cls-1" d="M74.94.26l3.8,3.6A23.69,23.69,0,0,0,80.3,7.52c1,1.9,1.85,2.7,2,5a6.41,6.41,0,0,1-2.17,5.23,5.69,5.69,0,0,0-2,3c-.72,2.4-2,3.15-4,4.57-.89.66-2.44,1-2.62,1.71s.89,1.45,1.38,2c.27.29.74,1.88,1.07,2.11h0c-3.47-.14-6.8-.09-8.32.58-2.74,1.21-8.91,9.32-10.6,12-4.35,1.82-10.84,4.47-12.67,9-2.41,6-5.74,6.06-10.61,8.64-2.36,1.26-1.66,6.32-1.88,8.65-.47,7.15-5.91,13-5.91,19.46,0,7.84,2.59,13.25,6.85,19.55,1.3,1.92,9.48,7.59,9.48,8.27-4.25,1.06-9.6,2-12.86,5-4.49,4-13-4-15.67,2.35-1.81,4.25-1.63,6-.37,10.43.79,2.78-.66,7.29-2.54,9.49l-5.36,1.83h0c.94-4.77-.54-9.39-.08-14.89,1.5-1.72,4-5.3,4.13-7.62.14-3.19-1-5.38,1.5-8.17,1-11.11-2.76-11.84-4.6-21.06C4,91.81,4.06,89,1.81,86.89c-2.9-2.7-.75-11.43-.75-15.51,0-4.29-1.52-5-.38-9.87a31.38,31.38,0,0,0,.72-5.89h0L12,51.37a36.42,36.42,0,0,0,8.56-6.44c1.59-1.64,3.49-3,4.79-4.93a38.9,38.9,0,0,1,4.08-4c.6-.35,5.9-5.25,6.56-5.9,4.09-4,4.53-7.44,9.8-11.22,2.35-1.7,1.34-1.94,4.84-3.57,3.27-1.53,8.76-7.34,12.67-9.8,1.81-1.14,6.42-2.51,9-3.9A24.57,24.57,0,0,1,74.94.26Z"/></g></g></svg>