<svg xmlns="http://www.w3.org/2000/svg" width="196.57" height="141.22" viewBox="0 0 196.57 141.22"><defs><style>.cls-1{fill:#191919;stroke:#fff;stroke-miterlimit:1.18;stroke-width:0.51px;fill-rule:evenodd;}</style></defs><g id="Layer_2" data-name="Layer 2"><g id="Layer_1-2" data-name="Layer 1"><path id="Karbi_Anglong_West" data-name="Karbi Anglong West" class="cls-1" d="M130.34,20.31c2.37,2.51,2,1.72,3.64,3.21,3.2,2.94,3.1,6.21,3.78,10.16.63,3.75-1.33,8.9.61,11.79,2.54,3.77,4.54-3,6-1.48.57.6-.7,4.11.42,6.13,1.26,2.26.81,3.55,3.85,2.74,2.75-.73,3.56-2,4.85,1.15a19.92,19.92,0,0,1,1.7,3.34c.6,2.15,4.71,8.16,7,9,4.24,1.56,6.38.48,10.29-.51,2.7-.68,8.56-2.29,11.08-1.13,3.93,1.82,5.78,4.68,6.32,8.88.75,2.37.89,1.82,1.93,3.55,1.36,2.26,5.2,2.75,4.45,5.52a2.1,2.1,0,0,1-.37.69l-2.2,1.78h0a3.29,3.29,0,0,1-2,.17c-3.69-2.08.1-7.09-2.55-7-2.92.13-2.44-.45-4.85,2.38a10.35,10.35,0,0,0-.57,1c-.77,1.56-2.76,4-4.11,1.61-1-1.75-2.9-3-4.74-1.69-3.24,2.21-2.3,8.29-7.93,12.24a43.62,43.62,0,0,1-9.06,3.72c-2.31.46-5.57,2.21-7.78,3.17-3.33,1.45-2.61,5.36-3.42,7.21-1.22,2.75-8.56,2.62-5.49,10.82.38,1-1.53,6.65-2,7.32-2.08,3.07-8.15,10-12.42,7.59-1.76-1-1.06-1.06-3.66-2.16l-9.25,2.64h0c0-1-.54-1.58-1.69-1.3-5.41,1.36-8.59,6.73-13.8,7.9-7.78,1.75-10.56-10.9-15-15.23l-24.22-23.5c-8.73-8.47-27.5,4.84-38.66,4.42C12,106.17,8.76,118,2.67,118l.94-23.41c0-5.48-6.72-11-1.13-13.44,6.88-3,6.66-7.8,6.94-13.72.22-4.55,6.58-3.85,8.26-6.49S9,57.05,7.73,57.05c-4.17,0-5.67-8.1-3-10.62S9.56,43.12,12.05,40c2.25-2.8,5.24-6.72,8.64-8.37,4.22-2.05,6.38-2.32,5.06-7.61h0l8-3.95a13.79,13.79,0,0,0,4.19-2c2.22-1.27,1.8-.83,3.67-2.75.9-.93,2-1.45,2.94-2.65,1.15-1.5,3.71-2.13,5.52-2,2.88.14,2.24,2,5.87,2.38a6.28,6.28,0,0,0,3.74-1.5c1-.92,2.78-3.48,3.9-3.81h0c6-1.79,5.12-1,9.73-5.09C76.91-.55,74.44-.06,78,1.32c2.49,1,7.27-3.32,7.27,2.29,0,5.44-.75,9.42,5.95,5.42,5.81-3.47,5,2,7.79,4.21,4.94,3.87,1.62,5.65-.11,9.34-2.24,4.78-1.77,2.17-.78,6.66.68,3.06-1.27,5.57-2.3,8.68-.75,2.25-1.58,4.52,1.53,5.78,3.46,1.4,6.85-.79,9.55-2.77,4.77-3.51,5.86-10.59,13.25-9,6.31,1.39,5.06-4.73,6.64-7.38.92-1.55,1.81-3.54,3.56-4.27Z"/></g></g></svg>