<svg xmlns="http://www.w3.org/2000/svg" width="194.11" height="112.6" viewBox="0 0 194.11 112.6"><defs><style>.cls-1{fill:#191919;stroke:#fff;stroke-miterlimit:1.18;stroke-width:0.51px;fill-rule:evenodd;}</style></defs><g id="Layer_2" data-name="Layer 2"><g id="Layer_1-2" data-name="Layer 1"><path id="Maksa" class="cls-1" d="M193.85,75.46l-.6,10.08h0a8.65,8.65,0,0,1-3.44-.26c-3.1-.56-4.46,1-6.62,3.09-1.83,1.74-2.67,3.77-4.78,5-1.85,1.1-1.94.6-3.5,1-1.16.32-3.73,2.82-4.75,3.72-4.72,4.17-6.93-2.16-7.65-5.87S159.63,87.54,159,84a6.67,6.67,0,0,0-1.3-3.52c-.69-1.1-.74-.73-1.24-1.22-1.19-1.17-1.54-1.14-2.22-2.94,0,0,1.46-4.62,1.5-4.85.44-3.08-1-3.65-3.76-4.21a16,16,0,0,1-3-1.28c-.75-.13-3.15,1.09-3.81,1.55-1.33.93-3.19,1.51-4.55,2.37a44.28,44.28,0,0,1-5.19,2.75c-2.75.85-3.76-1.74-6.5-2.32-3.77-.81-3.57,0-6,2.36-.41.44-.77,1-1.28,1.48a9.94,9.94,0,0,1-4.76,2.53c-1.94.53-3.09,0-4.64.17-3.63.39-3.91.33-7,2.39-1.39.94-3,2.68-4.27,3.55-1.9,1.26-3.72,2.75-6,1.66-2.66-1.28-2.06-3.54-2.53-5.62-.52-2.33-.76-2.76-2.79-4.17L85.53,77h0c-1-2.11-1.18-.11-1.11-3.07,0-1.88,3.69-5.41,5.21-6.29,1.19-.68,3.37-2.93,3.13-4.17-.55-2.82-3.81-3-6-3.45-4.07-.73-1.23-4.74-.88-6.3.9-4.06-5.89-.21-7.47-.67-3.56-1-.35-5.48-4.63-3.2C66.1,53.89,71,45.26,62.18,46.54c-4.33.63-4.23-1.58-5-1.55-1.59.06-2.31,1.41-2.66,2.74-.14.5-.23,6.69-.23,6.78.1.36,1.58.92,2.09,1.83,1.2,2.14,2.7,3,1.23,5.68-1.64,2.93-1,6.28-4,7.51-6.19,2.5.32,6.79-2.79,9.9-8.39,8.43-10-4.5-15.14-.4-3.22,2.57-1,5.62-2.77,9.43-2,4.27-3,8.75-1,13.33,1.37,3.13,1,4.1,1.78,7,.69,2.64-2.24,4.13-4.12,3.38-3.44-1.37-2.65-6-5.38-7.78-2.52-1.68,1.81-6.45-1.13-7.65-2.06-.84-1.53-2.32-1.41-4.13.17-2.51,1.5-3.12,3.85-3.12s1.75-2.91,1.67-4.76c0-.11-.09-1.29-.11-1.39-.44-1.91-1-1.93-1.08-4-.11-3.74,2.68-5.69,2.59-8.06-.06-1.93,1-6,.34-7.56-1.26-2.87-4.77,1.58-5.66,2.72-1.49,1.94-1.51,2.35-.87,4.52.5,1.74.94,2.36.81,4.31-.9,1-4,3.12-5.31,3.2-1.89.11-2.56-.47-3.71-1.72A11.24,11.24,0,0,1,12,73.16c-.48-1.57-1.31-2-1.88-3.15C8.67,67.18,7.32,71.78,7,72.82s-2.55,2.73-3.09,1.11A9.44,9.44,0,0,0,.25,69.72h0a9.54,9.54,0,0,1,3.92-5.51C5.51,63.29,8.76,59,9,57.44c1-6.06-3.31-.77-4.19-5.5S6.45,40.69,5.3,38a10.53,10.53,0,0,1,.56-8C8.4,25.43,9.31,27,10.37,20.48l4.08-7.3h0L39.29,12c3-3,5.18-11.7,10.8-6.77L73.55,6.88c8.54-2.14,15.58,6.67,23.55,6.67,16,0,7-7,15.4-13.34,3,2.25,5.24,5.32,8.16,7.52,14.54,10.91,32.85-3.5,47.49.28,2.07.53,5.74,0,9.51-.91h0L179,14c1.41,5.28,2.29,3.23,3.49,6.55.56,1.55-1.77,3.62-.17,5.1,1.92,1.77-1.58,7.52.68,8.74,1.71.92,1.24,4.4.51,6A6.49,6.49,0,0,0,183.4,46c2.85,5.09.14,8.86.7,11.46.8,3.72.46,3.67,3.75,6.1,2.86,2.11,4.46,2.61,5.05,6.5.29,1.91.84,3.61.95,5.43Z"/></g></g></svg>