<svg xmlns="http://www.w3.org/2000/svg" width="95.5" height="79.33" viewBox="0 0 95.5 79.33"><defs><style>.cls-1{fill:#191919;stroke:#fff;stroke-miterlimit:1.18;stroke-width:0.51px;fill-rule:evenodd;}</style></defs><g id="Layer_2" data-name="Layer 2"><g id="Layer_1-2" data-name="Layer 1"><path id="Bongaigaon" class="cls-1" d="M4.62,19.12,2.28,26.65v.12l.75,8H3C4.78,35.56,9.08,37.56,9,40c-.08,2,.79,5.27,2.73,6.4s4.47,7.51.87,7.29c-2.92-.18-.16,7-3.57,8.2-2,.7-4.62.22-3.36,3.11.41,1-2,3-2.87,3.91L.19,71.85h0c3.05,2.39,4,3.79,6.57,6.18,3.38,3.19,7.46-1.9,10-2.65C18,75,18.76,74.3,20.54,74c2.14-.32,2.5-.83,4.87-.59,4.18.43,7.75-1.9,11.23-3.84a23.14,23.14,0,0,1,12.82-2.8c.33,0,2-.34,2-.34h0l3-2.81c.28-1.49,4.27-3.57,5.55-4.1,3.79-1.56,2.48-.37,4.32-.14,3.44.42,1.39-2.16.79-3.47-1.28-2.78,4.44-3.68,5.81-4.16,1.88-.67,5-.44,6-.74,2.88-.84,1.61.3,5.25-1.76,1.62-3,.59-2.43,0-4.64-.53-1.92-1.49-3.17,0-4.52C84.21,38.2,87,36.05,90,36.64c3.59.71,6-4.12,5.09-7.12a35.31,35.31,0,0,1-1.23-6.14c-.36-2.23,1-5.86.73-6.41-1.47-2.71-4,.87-6.71,1.57-4.6,1.18-4.19.16-3.33-3.56.56-2.38,2.87-4.27,2.25-5.78-1.45-3.53-2.06-1.91-2.62-6.85h0a10,10,0,0,0-1.7-1.07C81.92.91,79.62.05,79,.3,76,1.51,78.15,3.78,75.08,6.41c-1.89,1.62-2.66.64-3.56,3-.72,1.94.6,8,0,9.39-1.12,2.46-2.44,1.48-4.33.78-1.31-2.38-1-2-1.45-4.47-.46-2.27-.45-3.85-1.38-6.06s-4-2.73-6.14-2.69a16.32,16.32,0,0,1-8.51-3c-1.42-1.08-4.1-2.58-5.91-1.69-1.3.64-1.25,2-1,3.2C43.12,6.81,41.53,7.32,40,7c-3-.62-2.74,3-5.88-.87A17.6,17.6,0,0,0,28.8,2.82c-2.3-.55-3-.48-5.07.8,0,.24-.09.37-.12.58-.22,1.67.13,1.45.54,2.63.9,2.55,2.31,3.2.29,5.72-1.26,1.57-1.05,1.12-1.4,3.06-.43,2.37,1.7,5.27-.88,6.21-3.41,1.25-3.79-1.39-5.56-.92-2.22.58-2.64-2.78-3.58-4.06-.27-.37-1.08-1.6-1.54-1.3A4,4,0,0,0,10,18.33c-.16,1.4-1.21,4-2.9,2.59-1.2-1-.81-1-2.49-1.8Z"/></g></g></svg>