<svg xmlns="http://www.w3.org/2000/svg" width="201.28" height="207.09" viewBox="0 0 201.28 207.09"><defs><style>.cls-1{fill:#191919;stroke:#fff;stroke-miterlimit:1.18;stroke-width:0.51px;fill-rule:evenodd;}</style></defs><g id="Layer_2" data-name="Layer 2"><g id="Layer_1-2" data-name="Layer 1"><path id="Dima_Hassao" data-name="Dima Hassao" class="cls-1" d="M134.91,25.12c-1.49,4.72-.49,5.2.24,9.61.27,1.69,2.75,5.23,4.21,6.42,1.09.9,3.89,3.31,3.89,4.74,0,4.47-2.12,7.62-.09,12.73,3.2,8.05,5.64,4.62,8.17,5.7,1.12.48,2,1.46,3.48,2,2.13.73,2,1.89,5.3,1.42,2-.27,6.8-1.31,8.69-1.51h0c0,.23,3.72,2.06,4.32,2.54,3.1,2.51.58,6.33,3.38,8.93,1.81,1.69,5.16,1.7,6,4.61,1.76,6.06,1.39,6.2,8.07,6.86,5.77.57,6.29,6,6.29,11.09,1.67,2.32,5.24,4.65,3.85,7.62-1.22,2.6-2.89,3.66-3,7-.1,2.89,1,6.15,1,9.2a7.69,7.69,0,0,1-1.29,4.53h0c-1.58,1.21-4.61,1.74-6.28,3-2,1.51-2.06,2.86-2.82,4.89.48,1.92-5,5-6.1,7-5.87,10.2-6,21.74-12,32.52-.22,7.67-18.8,16-13.05,22.56.27,3.18,1.33,5.58,1.5,8.42h0c-.16-.13-1-.67-1.22-.78-5.06-3.26-5.19-4.68-11.3-6.7a24.43,24.43,0,0,0-5.38-.78c-2.41-.22-8.26,0-10-.37-6.87-1.41-10-2-15.26-6.8-2-1.81-1.78-2.32-4.47-4.4a7,7,0,0,1-1.7-3.4c-.84-2.61.28-4.85.34-6.78.09-2.72.09-3.77-2.67-4.19-3.39-.53-8.59,3.75-11.76,5-4.22,1.69-5.46,4.21-9.59,1.44-1.74-1.17-4.35-.34-6.12.57-4.91,2.53-10.78,6.16-14.53-.47-.6-1.06-4.09-2.55-5.28-2.48-2.2.13-3.89-3.37-6.24-4.32-4.88-1.95-3-4.84-5-6.83-1.15-1.15-3.87.58-4.68,1.71-2.78,3.85-3.24,3.46-8.09,3.07-6-.49-8-2.07-13.8,1.35-4.05,2.38-5.87,2.25-10.45.73L1.13,170.05c2.35-1-1.75-4.57-.69-6,2.24,0,3.92,2.17,6.19,2.25s4.68-.2,6.94-.09c5.75.29,10.34-2.38,12-7.71,3.84-3.85,1.58-6.49,8.82-6.49,6.05,0,7.94-1.68,12.76-4.23,3.19-1.68,4.79-.48,8.17,0,5.29.76,3.09-.65,3.09-4.13-4.29-1.43-10.12-.44-5.81-6.11,1.27-1.68,5.23-8.7,4-10.43-2.49-3.62.14-5.49-.75-8.93-.5-2-10-6.4-12.29-8.65-5.06-5.07-6-12.76-14.18-11.47-5.72.9-3.85-5-5.63-4.61-4.93,1.18-7.82,8-9.66.57-.73-2.94,1.49-8.22-.1-10.34-2.08,0-3.75,1.13-5.91,1.13-4.19,0,12.59-12.52,14-13.92s6.66-11.13,6.49-14.77h0l9.25-2.64c2.59,1.1,1.89,1.17,3.65,2.15,4.28,2.37,10.35-4.52,12.42-7.59.45-.66,2.36-6.3,2-7.31-3.08-8.21,4.27-8.07,5.48-10.82.82-1.85.09-5.76,3.42-7.21,2.21-1,5.47-2.72,7.78-3.18a42.55,42.55,0,0,0,9.06-3.72c5.63-4,4.69-10,7.93-12.24,1.84-1.25,3.76-.06,4.74,1.7,1.35,2.42,3.34,0,4.12-1.62a10.11,10.11,0,0,1,.56-1C101.4-.2,100.92.38,103.84.26c2.65-.11-1.13,4.89,2.55,7a3.13,3.13,0,0,0,2-.17h0l4.8,2.82c2,1.92,2.3,1.91,4.77,2.53,3.62.9,8.14.29,11.17,3,2.64,2.32,3.43,2.81,4.65,6.35,0,.09.31.6.37.7l.8,2.7Z"/></g></g></svg>