<svg xmlns="http://www.w3.org/2000/svg" width="82.77" height="179.98" viewBox="0 0 82.77 179.98"><defs><style>.cls-1{fill:#191919;stroke:#fff;stroke-miterlimit:1.18;stroke-width:0.51px;fill-rule:evenodd;}</style></defs><g id="Layer_2" data-name="Layer 2"><g id="Layer_1-2" data-name="Layer 1"><path id="Hailakandi" class="cls-1" d="M74.84,89.36c-.38,0-5.12,9.09-8.63,15-2.85,4.75-1.78,10.82-4.32,15.7-3.7,7.11-14.59,10.1-17.18,15.88-2.84,6.37,4.5,15.41-5.91,17.67-10.64,0-13.27,18.41-22.8,23.88C-2.63,188.12,3.37,158.2.23,151.87h0c1.29-1.29,6.37-7.11,8-8.75.43-.44,1.05-1.39,1.44-1.87,1.42-1.77,2.09-3.66,3.23-5.54,1.54-2.53,1-1.36,2.22-4.84a15,15,0,0,1,.41-2.74c.69-4.89,1.62-5,4.82-7.75a7,7,0,0,0,1.57-6.71c-.87-2.28,0-5.31,1.36-7.26,1.81-2.62.25-7.41-.45-10.3s0-4.82.37-7.34c.48-3.73-2.91-4.4.7-10.12,1-1.56,0-6.86-.11-8.5l-.11-.6c-.69-2.44-.56-4.24-1-6-.9-3.47.62-7.67.62-10.78S20,47.46,20.07,46.24s3.59-9.41,4.31-12.11,2.05-6,4.39-7.69c1.87-1.38,3-2.69,2.29-5.22a3.93,3.93,0,0,1,2.47-4.76c3.08-1.27,1.87-5.53,3.13-7.13a16.29,16.29,0,0,0,2.63-3.64L42.39.18h0l5.7,5.89c-.4,4.55.45,4.75,3.9,6.59,2.44,1.3,6.51.59,4.36,4.61-1.17,2.19-1.85,5.1-1.07,7.46,1.19,3.61,0,4.87,0,8.25,0,3-.56,2.61.62,5.84.8,2.16-2.59,8.27-.37,10.08s0,3.74-.59,6.09c-.22.83-2.15,6.55.79,5.3.76-.33,2.68-2.61,5.12-3.41,2.84-.92,4.24,1.45,1.55,3.08-1.06.64-2.11,2.82-3,3.83.71,4.17.51,7.24,5.21,8.4.81.2,6.87-1.51,9.38-1.51,6.71,0,10.23.9,7.54,8.25-.77,2.11-5.26,7.62-6.77,10.43Z"/></g></g></svg>