<svg xmlns="http://www.w3.org/2000/svg" width="91.07" height="162" viewBox="0 0 91.07 162"><defs><style>.cls-1{fill:#191919;stroke:#fff;stroke-miterlimit:1.18;stroke-width:0.51px;fill-rule:evenodd;}</style></defs><g id="Layer_2" data-name="Layer 2"><g id="Layer_1-2" data-name="Layer 1"><path id="Karimganj" class="cls-1" d="M62.3,8.46l5.42,1.42c2.12.45,6.6,1.88,8.75,1.61,3.41-.42,4.75-1.48,7.84-2.2,2.06-.49,4.44-1.23,6.54-.37h0l-3.11,5.51a16.17,16.17,0,0,1-2.63,3.65c-1.26,1.6,0,5.86-3.13,7.13A3.91,3.91,0,0,0,79.52,30c.69,2.53-.43,3.83-2.3,5.21-2.34,1.73-3.66,5-4.39,7.7S68.56,53.63,68.52,55s3.23,3.4,3.23,6.58-1.52,7.3-.61,10.77c.45,1.73.32,3.52,1,6l.11.61c.13,1.64,1.1,6.93.11,8.5-3.61,5.71-.22,6.39-.69,10.12-.32,2.51-1.07,4.5-.38,7.34s2.27,7.67.45,10.29c-1.34,1.95-2.23,5-1.36,7.27a7,7,0,0,1-1.57,6.71c-3.19,2.77-4.13,2.86-4.82,7.75a14.89,14.89,0,0,0-.41,2.74c-1.2,3.47-.68,2.3-2.22,4.84-1.14,1.87-1.81,3.76-3.23,5.54-.39.48-1,1.43-1.44,1.86-1.64,1.65-6.73,7.47-8,8.76h0l-26.46.61h0l-22,.52c0-1.17,2.54-3.71,3.28-4.7,2-2.62,2.83-6.53,3.57-9.69,1-2.3,2.57-4.16,3.75-6.39,1.35-2.54,1.15-6,2.44-8.36,0-6.15.44-9.05-3.09-14.29-3.12-4.61-3.1-12.39-3.1-17.86h0c.82-3.32.14-7.45.84-10.9S8.3,81.05,6.64,77.9a11.94,11.94,0,0,1-1.78-6.2c.82-1,.85-3.29,1.69-4.33,0-2.26.08-4.86.28-7.14,0-11.39.79-4.61,8.26-9.59,2.18-1.46-2.49-12-1.6-14.85,1.13-3.66,5.47-2.63,4.32-7.52-1.42-6-2.53-6.63-8.64-8.37l-.65-6.58c-.36-3.53,3.64-3.08,1.12-7.42C9.16,5.07,5.86.26,6.64.26,10.07.26,13.18,2,16.68,2c6.82,0,5.18,1.87,10.79,4.05,1.72.66,4.74,1,6.1,2,2.58,1.79,3.47,5.57,7,6s7.26-2,10.79-.19C54.46,15.46,54.36,10,58,10c2.92,0,4-.37,4.33-1.57Z"/></g></g></svg>